<svg xmlns="http://www.w3.org/2000/svg" viewBox="0 0 1920 788.779" role="img" aria-labelledby="title desc"><title id="title">Invincible class recognition drawing</title><desc id="desc">Original WNT1922 Invincible class recognition illustration. Port profile and deck plan share one hull length and equipment stations. Hull dimensions follow the catalog. Fitted catalog main battery: 9 barrels. Internal submarine tubes are not depicted as exposed deck mounts.</desc><metadata id="recognition-geometry">{&quot;schema&quot;:1,&quot;kind&quot;:&quot;ship&quot;,&quot;platformIds&quot;:[&quot;invincible_bc22&quot;],&quot;length_m&quot;:261,&quot;beam_m&quot;:32.3,&quot;dimensionsAreIllustrationChoices&quot;:false,&quot;scale_px_per_m&quot;:6.590038314176245,&quot;hullDatums&quot;:{&quot;profile&quot;:{&quot;x&quot;:100,&quot;y&quot;:305.4214559386973,&quot;length&quot;:1720},&quot;plan&quot;:{&quot;x&quot;:100,&quot;y&quot;:585.4214559386974,&quot;length&quot;:1720}},&quot;mainMounts&quot;:3,&quot;mainBarrels&quot;:9,&quot;torpedoTubes&quot;:2,&quot;catapults&quot;:1,&quot;stations&quot;:[{&quot;id&quot;:&quot;main-0&quot;,&quot;role&quot;:&quot;main&quot;,&quot;x_m&quot;:60.03,&quot;z_m&quot;:0,&quot;barrels&quot;:3,&quot;direction&quot;:-1,&quot;tier&quot;:0,&quot;lateral_m&quot;:0,&quot;length_m&quot;:10.304,&quot;beam_m&quot;:7.681,&quot;barrel_length_m&quot;:11.774},{&quot;id&quot;:&quot;main-1&quot;,&quot;role&quot;:&quot;main&quot;,&quot;x_m&quot;:79.605,&quot;z_m&quot;:0,&quot;barrels&quot;:3,&quot;direction&quot;:-1,&quot;tier&quot;:1,&quot;lateral_m&quot;:0,&quot;length_m&quot;:10.304,&quot;beam_m&quot;:7.681,&quot;barrel_length_m&quot;:11.774},{&quot;id&quot;:&quot;main-2&quot;,&quot;role&quot;:&quot;main&quot;,&quot;x_m&quot;:123.975,&quot;z_m&quot;:0,&quot;barrels&quot;:3,&quot;direction&quot;:1,&quot;tier&quot;:0,&quot;lateral_m&quot;:0,&quot;length_m&quot;:10.304,&quot;beam_m&quot;:7.681,&quot;barrel_length_m&quot;:11.774},{&quot;id&quot;:&quot;bridge&quot;,&quot;role&quot;:&quot;bridge&quot;,&quot;x_m&quot;:100.485,&quot;z_m&quot;:0,&quot;lateral_m&quot;:0,&quot;length_m&quot;:16.12,&quot;beam_m&quot;:15.503999999999998},{&quot;id&quot;:&quot;foremast&quot;,&quot;role&quot;:&quot;mast&quot;,&quot;x_m&quot;:107.27100000000002,&quot;z_m&quot;:0,&quot;radar&quot;:false,&quot;lateral_m&quot;:0,&quot;base_y&quot;:305.421,&quot;top_y&quot;:55},{&quot;id&quot;:&quot;funnel-0&quot;,&quot;role&quot;:&quot;funnel&quot;,&quot;x_m&quot;:169.65,&quot;z_m&quot;:0,&quot;lateral_m&quot;:0,&quot;length_m&quot;:7,&quot;beam_m&quot;:6.3},{&quot;id&quot;:&quot;funnel-1&quot;,&quot;role&quot;:&quot;funnel&quot;,&quot;x_m&quot;:190.53,&quot;z_m&quot;:0,&quot;lateral_m&quot;:0,&quot;length_m&quot;:7,&quot;beam_m&quot;:6.3},{&quot;id&quot;:&quot;aftmast&quot;,&quot;role&quot;:&quot;mast&quot;,&quot;x_m&quot;:216.63,&quot;z_m&quot;:0,&quot;radar&quot;:false,&quot;lateral_m&quot;:0,&quot;base_y&quot;:305.421,&quot;top_y&quot;:114.31},{&quot;id&quot;:&quot;secondary-secondary--1-0&quot;,&quot;role&quot;:&quot;secondary&quot;,&quot;x_m&quot;:105.70500000000001,&quot;z_m&quot;:0,&quot;barrels&quot;:2,&quot;direction&quot;:-1,&quot;tier&quot;:0,&quot;lateral_m&quot;:-8.721,&quot;length_m&quot;:4.95,&quot;beam_m&quot;:3.69,&quot;barrel_length_m&quot;:3.8},{&quot;id&quot;:&quot;secondary-secondary--1-1&quot;,&quot;role&quot;:&quot;secondary&quot;,&quot;x_m&quot;:148.76999999999998,&quot;z_m&quot;:0,&quot;barrels&quot;:2,&quot;direction&quot;:-1,&quot;tier&quot;:0,&quot;lateral_m&quot;:-8.721,&quot;length_m&quot;:4.95,&quot;beam_m&quot;:3.69,&quot;barrel_length_m&quot;:3.8},{&quot;id&quot;:&quot;secondary-secondary--1-2&quot;,&quot;role&quot;:&quot;secondary&quot;,&quot;x_m&quot;:206.19,&quot;z_m&quot;:0,&quot;barrels&quot;:2,&quot;direction&quot;:-1,&quot;tier&quot;:0,&quot;lateral_m&quot;:-8.721,&quot;length_m&quot;:4.95,&quot;beam_m&quot;:3.69,&quot;barrel_length_m&quot;:3.8},{&quot;id&quot;:&quot;secondary-secondary--1-3&quot;,&quot;role&quot;:&quot;secondary&quot;,&quot;x_m&quot;:223.155,&quot;z_m&quot;:0,&quot;barrels&quot;:2,&quot;direction&quot;:-1,&quot;tier&quot;:0,&quot;lateral_m&quot;:-8.721,&quot;length_m&quot;:4.95,&quot;beam_m&quot;:3.69,&quot;barrel_length_m&quot;:3.8},{&quot;id&quot;:&quot;secondary-secondary-1-0&quot;,&quot;role&quot;:&quot;secondary&quot;,&quot;x_m&quot;:105.70500000000001,&quot;z_m&quot;:0,&quot;barrels&quot;:2,&quot;direction&quot;:1,&quot;tier&quot;:0,&quot;lateral_m&quot;:8.721,&quot;length_m&quot;:4.95,&quot;beam_m&quot;:3.69,&quot;barrel_length_m&quot;:3.8},{&quot;id&quot;:&quot;secondary-secondary-1-1&quot;,&quot;role&quot;:&quot;secondary&quot;,&quot;x_m&quot;:148.76999999999998,&quot;z_m&quot;:0,&quot;barrels&quot;:2,&quot;direction&quot;:1,&quot;tier&quot;:0,&quot;lateral_m&quot;:8.721,&quot;length_m&quot;:4.95,&quot;beam_m&quot;:3.69,&quot;barrel_length_m&quot;:3.8},{&quot;id&quot;:&quot;secondary-secondary-1-2&quot;,&quot;role&quot;:&quot;secondary&quot;,&quot;x_m&quot;:206.19,&quot;z_m&quot;:0,&quot;barrels&quot;:2,&quot;direction&quot;:1,&quot;tier&quot;:0,&quot;lateral_m&quot;:8.721,&quot;length_m&quot;:4.95,&quot;beam_m&quot;:3.69,&quot;barrel_length_m&quot;:3.8},{&quot;id&quot;:&quot;secondary-secondary-1-3&quot;,&quot;role&quot;:&quot;secondary&quot;,&quot;x_m&quot;:223.155,&quot;z_m&quot;:0,&quot;barrels&quot;:2,&quot;direction&quot;:1,&quot;tier&quot;:0,&quot;lateral_m&quot;:8.721,&quot;length_m&quot;:4.95,&quot;beam_m&quot;:3.69,&quot;barrel_length_m&quot;:3.8},{&quot;id&quot;:&quot;light-aa-aa--1-0&quot;,&quot;role&quot;:&quot;light-aa&quot;,&quot;x_m&quot;:138.33,&quot;z_m&quot;:0,&quot;barrels&quot;:1,&quot;direction&quot;:-1,&quot;tier&quot;:0,&quot;lateral_m&quot;:-11.305,&quot;length_m&quot;:2.86,&quot;beam_m&quot;:2.132,&quot;barrel_length_m&quot;:3},{&quot;id&quot;:&quot;light-aa-aa--1-1&quot;,&quot;role&quot;:&quot;light-aa&quot;,&quot;x_m&quot;:177.48000000000002,&quot;z_m&quot;:0,&quot;barrels&quot;:1,&quot;direction&quot;:-1,&quot;tier&quot;:0,&quot;lateral_m&quot;:-11.305,&quot;length_m&quot;:2.86,&quot;beam_m&quot;:2.132,&quot;barrel_length_m&quot;:3},{&quot;id&quot;:&quot;light-aa-aa--1-2&quot;,&quot;role&quot;:&quot;light-aa&quot;,&quot;x_m&quot;:200.97,&quot;z_m&quot;:0,&quot;barrels&quot;:1,&quot;direction&quot;:-1,&quot;tier&quot;:0,&quot;lateral_m&quot;:-11.305,&quot;length_m&quot;:2.86,&quot;beam_m&quot;:2.132,&quot;barrel_length_m&quot;:3},{&quot;id&quot;:&quot;light-aa-aa-1-0&quot;,&quot;role&quot;:&quot;light-aa&quot;,&quot;x_m&quot;:138.33,&quot;z_m&quot;:0,&quot;barrels&quot;:1,&quot;direction&quot;:1,&quot;tier&quot;:0,&quot;lateral_m&quot;:11.305,&quot;length_m&quot;:2.86,&quot;beam_m&quot;:2.132,&quot;barrel_length_m&quot;:3},{&quot;id&quot;:&quot;light-aa-aa-1-1&quot;,&quot;role&quot;:&quot;light-aa&quot;,&quot;x_m&quot;:177.48000000000002,&quot;z_m&quot;:0,&quot;barrels&quot;:1,&quot;direction&quot;:1,&quot;tier&quot;:0,&quot;lateral_m&quot;:11.305,&quot;length_m&quot;:2.86,&quot;beam_m&quot;:2.132,&quot;barrel_length_m&quot;:3},{&quot;id&quot;:&quot;light-aa-aa-1-2&quot;,&quot;role&quot;:&quot;light-aa&quot;,&quot;x_m&quot;:200.97,&quot;z_m&quot;:0,&quot;barrels&quot;:1,&quot;direction&quot;:1,&quot;tier&quot;:0,&quot;lateral_m&quot;:11.305,&quot;length_m&quot;:2.86,&quot;beam_m&quot;:2.132,&quot;barrel_length_m&quot;:3},{&quot;id&quot;:&quot;catapult-0&quot;,&quot;role&quot;:&quot;catapult&quot;,&quot;x_m&quot;:246.384,&quot;z_m&quot;:0,&quot;lateral_m&quot;:0,&quot;length_m&quot;:16,&quot;beam_m&quot;:4,&quot;orientation&quot;:&quot;fore-and-aft&quot;},{&quot;id&quot;:&quot;aircraft-crane&quot;,&quot;role&quot;:&quot;crane&quot;,&quot;x_m&quot;:257.085,&quot;z_m&quot;:0},{&quot;id&quot;:&quot;boat--1-0&quot;,&quot;role&quot;:&quot;boat&quot;,&quot;x_m&quot;:153.98999999999998,&quot;z_m&quot;:0,&quot;lateral_m&quot;:-8.398},{&quot;id&quot;:&quot;boat--1-1&quot;,&quot;role&quot;:&quot;boat&quot;,&quot;x_m&quot;:180.08999999999997,&quot;z_m&quot;:0,&quot;lateral_m&quot;:-8.398},{&quot;id&quot;:&quot;boat-1-0&quot;,&quot;role&quot;:&quot;boat&quot;,&quot;x_m&quot;:153.98999999999998,&quot;z_m&quot;:0,&quot;lateral_m&quot;:8.398},{&quot;id&quot;:&quot;boat-1-1&quot;,&quot;role&quot;:&quot;boat&quot;,&quot;x_m&quot;:180.08999999999997,&quot;z_m&quot;:0,&quot;lateral_m&quot;:8.398}],&quot;method&quot;:&quot;Each equipment station is a single SVG group with one longitudinal translation containing both orthographic projections. Equipment moves together when that shared transform is edited.&quot;}</metadata><rect x="0" y="0" width="1920" height="788.779" fill="#fff"></rect><path d="M 100 286.9693486590038 Q 180 300.14942528735634 420 305.4214559386973 L 1820 305.4214559386973 L 1790 344.4344827586207 L 140 344.4344827586207 Z" fill="#111" data-hull-view="profile" data-length-m="261"></path><line x1="143" y1="330.727" x2="1794" y2="330.727" stroke="#fff" stroke-width="1"></line><path d="M 100 585.4214559386974 C 200 517.3068199233717 320 483.2495019157089 590 478.992337164751 L 1310 478.992337164751 Q 1680 493.8924137931035 1820 585.4214559386974 Q 1680 676.9504980842912 1310 691.8505747126437 L 590 691.8505747126437 C 320 687.5934099616859 200 653.536091954023 100 585.4214559386974 Z" fill="#111" data-hull-view="plan" data-length-m="261" data-beam-m="32.3"></path><path d="M 138 585.4214559386974 C 260 517.3068199233717 360 489.6352490421457 590 487.5066666666667 L 1300 487.5066666666667 Q 1670 500.27816091954026 1785 585.4214559386974 Q 1670 670.5647509578545 1300 683.3362452107281 L 590 683.3362452107281 C 360 681.207662835249 260 653.536091954023 138 585.4214559386974 Z" fill="none" stroke="#fff" stroke-width="1"></path><ellipse cx="175" cy="585.421" rx="9" ry="5" fill="none" stroke="#fff"></ellipse><line x1="175" y1="585.421" x2="260" y2="585.421" stroke="#fff" stroke-width="1.4"></line><rect x="253" y="576.421" width="15" height="18" fill="#111" stroke="#fff"></rect><g data-station="main-0" data-role="main" data-x-m="60.03" transform="translate(495.6 0)"><g data-view="profile"><path d="M -32.09902222222222 305.4214559386973 L -32.09902222222222 285.05092260536395 L 19.753244444444444 277.6434559386973 L 33.95088888888889 291.84110038314174 L 33.95088888888889 305.4214559386973 Z" fill="#111" stroke="#fff" stroke-width="1"></path><line x1="-29.63" y1="288.137" x2="-107.221" y2="288.137" stroke="#111" stroke-width="3.211"></line></g><g data-view="plan"><ellipse cx="0" cy="585.421" rx="24.692" ry="26.321" fill="#111" stroke="#fff" stroke-width="1"></ellipse><path d="M -33.95088888888889 564.1620266053641 L 24.691555555555553 560.112611494253 L 33.95088888888889 571.2485030498085 L 33.95088888888889 599.5944088275862 L 24.691555555555553 610.7303003831418 L -33.95088888888889 606.6808852720307 Z" fill="#111" stroke="#fff" stroke-width="1"></path><rect x="-105.369" y="571.162" width="77.591" height="3.211" fill="#111" stroke="#fff" stroke-width="0.6" data-main-barrel="0-0"></rect><rect x="-105.369" y="583.816" width="77.591" height="3.211" fill="#111" stroke="#fff" stroke-width="0.6" data-main-barrel="0-1"></rect><rect x="-105.369" y="596.471" width="77.591" height="3.211" fill="#111" stroke="#fff" stroke-width="0.6" data-main-barrel="0-2"></rect></g></g><g data-station="main-1" data-role="main" data-x-m="79.605" transform="translate(624.6 0)"><g data-view="profile"><rect x="-20.988" y="280.379" width="41.976" height="25.042" fill="#111" stroke="#fff" stroke-width="0.6"></rect><path d="M -32.09902222222222 280.37931034482756 L -32.09902222222222 260.0087770114942 L 19.753244444444444 252.60131034482757 L 33.95088888888889 266.798954789272 L 33.95088888888889 280.37931034482756 Z" fill="#111" stroke="#fff" stroke-width="1"></path><line x1="-29.63" y1="263.095" x2="-107.221" y2="263.095" stroke="#111" stroke-width="3.211"></line></g><g data-view="plan"><ellipse cx="0" cy="585.421" rx="24.692" ry="26.321" fill="#111" stroke="#fff" stroke-width="1"></ellipse><path d="M -33.95088888888889 564.1620266053641 L 24.691555555555553 560.112611494253 L 33.95088888888889 571.2485030498085 L 33.95088888888889 599.5944088275862 L 24.691555555555553 610.7303003831418 L -33.95088888888889 606.6808852720307 Z" fill="#111" stroke="#fff" stroke-width="1"></path><rect x="-105.369" y="571.162" width="77.591" height="3.211" fill="#111" stroke="#fff" stroke-width="0.6" data-main-barrel="1-0"></rect><rect x="-105.369" y="583.816" width="77.591" height="3.211" fill="#111" stroke="#fff" stroke-width="0.6" data-main-barrel="1-1"></rect><rect x="-105.369" y="596.471" width="77.591" height="3.211" fill="#111" stroke="#fff" stroke-width="0.6" data-main-barrel="1-2"></rect></g></g><g data-station="main-2" data-role="main" data-x-m="123.975" transform="translate(917 0)"><g data-view="profile"><path d="M -32.09902222222222 305.4214559386973 L -32.09902222222222 285.05092260536395 L 19.753244444444444 277.6434559386973 L 33.95088888888889 291.84110038314174 L 33.95088888888889 305.4214559386973 Z" fill="#111" stroke="#fff" stroke-width="1"></path><line x1="29.63" y1="288.137" x2="107.221" y2="288.137" stroke="#111" stroke-width="3.211"></line></g><g data-view="plan"><ellipse cx="0" cy="585.421" rx="24.692" ry="26.321" fill="#111" stroke="#fff" stroke-width="1"></ellipse><path d="M -33.95088888888889 564.1620266053641 L 24.691555555555553 560.112611494253 L 33.95088888888889 571.2485030498085 L 33.95088888888889 599.5944088275862 L 24.691555555555553 610.7303003831418 L -33.95088888888889 606.6808852720307 Z" fill="#111" stroke="#fff" stroke-width="1"></path><rect x="27.778" y="571.162" width="77.591" height="3.211" fill="#111" stroke="#fff" stroke-width="0.6" data-main-barrel="2-0"></rect><rect x="27.778" y="583.816" width="77.591" height="3.211" fill="#111" stroke="#fff" stroke-width="0.6" data-main-barrel="2-1"></rect><rect x="27.778" y="596.471" width="77.591" height="3.211" fill="#111" stroke="#fff" stroke-width="0.6" data-main-barrel="2-2"></rect></g></g><g data-station="bridge" data-role="bridge" data-x-m="100.485" transform="translate(762.2 0)"><g data-view="profile"><rect x="-53.116" y="254.678" width="106.231" height="50.743" fill="#111" stroke="#fff" stroke-width="0.8"></rect><rect x="-42.835" y="211.184" width="85.67" height="43.494" fill="#111" stroke="#fff" stroke-width="0.8"></rect><path d="M -38.55172413793103 211.183908045977 L -38.55172413793103 160.44061302681993 L 25.701149425287355 160.44061302681993 L 38.55172413793103 192.33639846743296 L 38.55172413793103 211.183908045977 Z" fill="#111" stroke="#fff" stroke-width="0.8"></path><rect x="-30.841" y="164.441" width="5.14" height="2.5" fill="#fff"></rect><rect x="-16.706" y="164.441" width="5.14" height="2.5" fill="#fff"></rect><rect x="-2.57" y="164.441" width="5.14" height="2.5" fill="#fff"></rect><rect x="11.566" y="164.441" width="5.14" height="2.5" fill="#fff"></rect><rect x="25.701" y="164.441" width="5.14" height="2.5" fill="#fff"></rect></g><g data-view="plan"><rect x="-53.116" y="534.335" width="106.231" height="102.172" fill="#111" rx="3" stroke="#fff" stroke-width="1"></rect><rect x="-36.838" y="551.705" width="73.677" height="67.433" fill="#111" rx="2" stroke="#fff" stroke-width="1"></rect></g></g><g data-station="foremast" data-role="mast" data-x-m="107.271" transform="translate(806.92 0)"><g data-view="profile"><line x1="0" y1="305.421" x2="0" y2="55" stroke="#111" stroke-width="2.3"></line><line x1="-19.77" y1="305.421" x2="0" y2="87.95" stroke="#111" stroke-width="2"></line><line x1="19.77" y1="305.421" x2="0" y2="87.95" stroke="#111" stroke-width="2"></line><line x1="-26.36" y1="74.77" x2="26.36" y2="74.77" stroke="#111" stroke-width="2"></line><rect x="-15.157" y="87.95" width="30.314" height="13.18" fill="#111"></rect></g><g data-view="plan"><ellipse cx="0" cy="585.421" rx="5.272" ry="5.272" fill="#111" stroke="#fff"></ellipse><line x1="-26.36" y1="585.421" x2="26.36" y2="585.421" stroke="#fff" stroke-width="1"></line></g></g><g data-station="funnel-0" data-role="funnel" data-x-m="169.65" transform="translate(1218 0)"><g data-view="profile"><rect x="-23.065" y="140.67" width="46.13" height="164.751" fill="#111" rx="5.997" stroke="#fff" stroke-width="0.8"></rect><line x1="-23.065" y1="144.67" x2="23.065" y2="144.67" stroke="#fff" stroke-width="1.2"></line></g><g data-view="plan"><rect x="-23.065" y="564.663" width="46.13" height="41.517" fill="#111" rx="8.303" stroke="#fff" stroke-width="1"></rect><ellipse cx="0" cy="585.421" rx="13.839" ry="13.378" fill="none" stroke="#fff" stroke-width="0.8"></ellipse></g></g><g data-station="funnel-1" data-role="funnel" data-x-m="190.53" transform="translate(1355.6 0)"><g data-view="profile"><rect x="-23.065" y="140.67" width="46.13" height="164.751" fill="#111" rx="5.997" stroke="#fff" stroke-width="0.8"></rect><line x1="-23.065" y1="144.67" x2="23.065" y2="144.67" stroke="#fff" stroke-width="1.2"></line></g><g data-view="plan"><rect x="-23.065" y="564.663" width="46.13" height="41.517" fill="#111" rx="8.303" stroke="#fff" stroke-width="1"></rect><ellipse cx="0" cy="585.421" rx="13.839" ry="13.378" fill="none" stroke="#fff" stroke-width="0.8"></ellipse></g></g><g data-station="aftmast" data-role="mast" data-x-m="216.63" transform="translate(1527.6 0)"><g data-view="profile"><line x1="0" y1="305.421" x2="0" y2="114.31" stroke="#111" stroke-width="2.3"></line><line x1="-19.77" y1="305.421" x2="0" y2="147.261" stroke="#111" stroke-width="2"></line><line x1="19.77" y1="305.421" x2="0" y2="147.261" stroke="#111" stroke-width="2"></line><line x1="-26.36" y1="134.08" x2="26.36" y2="134.08" stroke="#111" stroke-width="2"></line><rect x="-15.157" y="147.261" width="30.314" height="13.18" fill="#111"></rect></g><g data-view="plan"><ellipse cx="0" cy="585.421" rx="5.272" ry="5.272" fill="#111" stroke="#fff"></ellipse><line x1="-26.36" y1="585.421" x2="26.36" y2="585.421" stroke="#fff" stroke-width="1"></line></g></g><g data-station="secondary-secondary--1-0" data-role="secondary" data-x-m="105.705" transform="translate(796.6 0)"><g data-view="profile"><path d="M -15.420689655172414 305.4214559386973 L -15.420689655172414 295.6352490421456 L 9.489655172413793 292.0766283524904 L 16.310344827586206 298.8973180076628 L 16.310344827586206 305.4214559386973 Z" fill="#111" stroke="#fff" stroke-width="1"></path><line x1="-14.234" y1="297.118" x2="-39.277" y2="297.118" stroke="#111" stroke-width="1.8"></line></g><g data-view="plan"><ellipse cx="0" cy="527.95" rx="11.862" ry="12.645" fill="#111" stroke="#fff" stroke-width="1"></ellipse><path d="M -16.310344827586206 517.736490421456 L 11.862068965517242 515.7911111111111 L 16.310344827586206 521.1409042145594 L 16.310344827586206 534.7585593869733 L 11.862068965517242 540.1083524904216 L -16.310344827586206 538.1629731800767 Z" fill="#111" stroke="#fff" stroke-width="1"></path><rect x="-38.387" y="522.997" width="25.042" height="1.8" fill="#111" stroke="#fff" stroke-width="0.6" data-secondary-barrel="secondary--1-0-0"></rect><rect x="-38.387" y="531.103" width="25.042" height="1.8" fill="#111" stroke="#fff" stroke-width="0.6" data-secondary-barrel="secondary--1-0-1"></rect></g></g><g data-station="secondary-secondary--1-1" data-role="secondary" data-x-m="148.77" transform="translate(1080.4 0)"><g data-view="profile"><path d="M -15.420689655172414 305.4214559386973 L -15.420689655172414 295.6352490421456 L 9.489655172413793 292.0766283524904 L 16.310344827586206 298.8973180076628 L 16.310344827586206 305.4214559386973 Z" fill="#111" stroke="#fff" stroke-width="1"></path><line x1="-14.234" y1="297.118" x2="-39.277" y2="297.118" stroke="#111" stroke-width="1.8"></line></g><g data-view="plan"><ellipse cx="0" cy="527.95" rx="11.862" ry="12.645" fill="#111" stroke="#fff" stroke-width="1"></ellipse><path d="M -16.310344827586206 517.736490421456 L 11.862068965517242 515.7911111111111 L 16.310344827586206 521.1409042145594 L 16.310344827586206 534.7585593869733 L 11.862068965517242 540.1083524904216 L -16.310344827586206 538.1629731800767 Z" fill="#111" stroke="#fff" stroke-width="1"></path><rect x="-38.387" y="522.997" width="25.042" height="1.8" fill="#111" stroke="#fff" stroke-width="0.6" data-secondary-barrel="secondary--1-1-0"></rect><rect x="-38.387" y="531.103" width="25.042" height="1.8" fill="#111" stroke="#fff" stroke-width="0.6" data-secondary-barrel="secondary--1-1-1"></rect></g></g><g data-station="secondary-secondary--1-2" data-role="secondary" data-x-m="206.19" transform="translate(1458.8 0)"><g data-view="profile"><path d="M -15.420689655172414 305.4214559386973 L -15.420689655172414 295.6352490421456 L 9.489655172413793 292.0766283524904 L 16.310344827586206 298.8973180076628 L 16.310344827586206 305.4214559386973 Z" fill="#111" stroke="#fff" stroke-width="1"></path><line x1="-14.234" y1="297.118" x2="-39.277" y2="297.118" stroke="#111" stroke-width="1.8"></line></g><g data-view="plan"><ellipse cx="0" cy="527.95" rx="11.862" ry="12.645" fill="#111" stroke="#fff" stroke-width="1"></ellipse><path d="M -16.310344827586206 517.736490421456 L 11.862068965517242 515.7911111111111 L 16.310344827586206 521.1409042145594 L 16.310344827586206 534.7585593869733 L 11.862068965517242 540.1083524904216 L -16.310344827586206 538.1629731800767 Z" fill="#111" stroke="#fff" stroke-width="1"></path><rect x="-38.387" y="522.997" width="25.042" height="1.8" fill="#111" stroke="#fff" stroke-width="0.6" data-secondary-barrel="secondary--1-2-0"></rect><rect x="-38.387" y="531.103" width="25.042" height="1.8" fill="#111" stroke="#fff" stroke-width="0.6" data-secondary-barrel="secondary--1-2-1"></rect></g></g><g data-station="secondary-secondary--1-3" data-role="secondary" data-x-m="223.155" transform="translate(1570.6 0)"><g data-view="profile"><path d="M -15.420689655172414 305.4214559386973 L -15.420689655172414 295.6352490421456 L 9.489655172413793 292.0766283524904 L 16.310344827586206 298.8973180076628 L 16.310344827586206 305.4214559386973 Z" fill="#111" stroke="#fff" stroke-width="1"></path><line x1="-14.234" y1="297.118" x2="-39.277" y2="297.118" stroke="#111" stroke-width="1.8"></line></g><g data-view="plan"><ellipse cx="0" cy="527.95" rx="11.862" ry="12.645" fill="#111" stroke="#fff" stroke-width="1"></ellipse><path d="M -16.310344827586206 517.736490421456 L 11.862068965517242 515.7911111111111 L 16.310344827586206 521.1409042145594 L 16.310344827586206 534.7585593869733 L 11.862068965517242 540.1083524904216 L -16.310344827586206 538.1629731800767 Z" fill="#111" stroke="#fff" stroke-width="1"></path><rect x="-38.387" y="522.997" width="25.042" height="1.8" fill="#111" stroke="#fff" stroke-width="0.6" data-secondary-barrel="secondary--1-3-0"></rect><rect x="-38.387" y="531.103" width="25.042" height="1.8" fill="#111" stroke="#fff" stroke-width="0.6" data-secondary-barrel="secondary--1-3-1"></rect></g></g><g data-station="secondary-secondary-1-0" data-role="secondary" data-x-m="105.705" transform="translate(796.6 0)"><g data-view="profile"><path d="M -15.420689655172414 305.4214559386973 L -15.420689655172414 295.6352490421456 L 9.489655172413793 292.0766283524904 L 16.310344827586206 298.8973180076628 L 16.310344827586206 305.4214559386973 Z" fill="#111" stroke="#fff" stroke-width="1"></path><line x1="14.234" y1="297.118" x2="39.277" y2="297.118" stroke="#111" stroke-width="1.8"></line></g><g data-view="plan"><ellipse cx="0" cy="642.893" rx="11.862" ry="12.645" fill="#111" stroke="#fff" stroke-width="1"></ellipse><path d="M -16.310344827586206 632.679938697318 L 11.862068965517242 630.7345593869732 L 16.310344827586206 636.0843524904215 L 16.310344827586206 649.7020076628353 L 11.862068965517242 655.0518007662836 L -16.310344827586206 653.1064214559387 Z" fill="#111" stroke="#fff" stroke-width="1"></path><rect x="13.345" y="637.94" width="25.042" height="1.8" fill="#111" stroke="#fff" stroke-width="0.6" data-secondary-barrel="secondary-1-0-0"></rect><rect x="13.345" y="646.046" width="25.042" height="1.8" fill="#111" stroke="#fff" stroke-width="0.6" data-secondary-barrel="secondary-1-0-1"></rect></g></g><g data-station="secondary-secondary-1-1" data-role="secondary" data-x-m="148.77" transform="translate(1080.4 0)"><g data-view="profile"><path d="M -15.420689655172414 305.4214559386973 L -15.420689655172414 295.6352490421456 L 9.489655172413793 292.0766283524904 L 16.310344827586206 298.8973180076628 L 16.310344827586206 305.4214559386973 Z" fill="#111" stroke="#fff" stroke-width="1"></path><line x1="14.234" y1="297.118" x2="39.277" y2="297.118" stroke="#111" stroke-width="1.8"></line></g><g data-view="plan"><ellipse cx="0" cy="642.893" rx="11.862" ry="12.645" fill="#111" stroke="#fff" stroke-width="1"></ellipse><path d="M -16.310344827586206 632.679938697318 L 11.862068965517242 630.7345593869732 L 16.310344827586206 636.0843524904215 L 16.310344827586206 649.7020076628353 L 11.862068965517242 655.0518007662836 L -16.310344827586206 653.1064214559387 Z" fill="#111" stroke="#fff" stroke-width="1"></path><rect x="13.345" y="637.94" width="25.042" height="1.8" fill="#111" stroke="#fff" stroke-width="0.6" data-secondary-barrel="secondary-1-1-0"></rect><rect x="13.345" y="646.046" width="25.042" height="1.8" fill="#111" stroke="#fff" stroke-width="0.6" data-secondary-barrel="secondary-1-1-1"></rect></g></g><g data-station="secondary-secondary-1-2" data-role="secondary" data-x-m="206.19" transform="translate(1458.8 0)"><g data-view="profile"><path d="M -15.420689655172414 305.4214559386973 L -15.420689655172414 295.6352490421456 L 9.489655172413793 292.0766283524904 L 16.310344827586206 298.8973180076628 L 16.310344827586206 305.4214559386973 Z" fill="#111" stroke="#fff" stroke-width="1"></path><line x1="14.234" y1="297.118" x2="39.277" y2="297.118" stroke="#111" stroke-width="1.8"></line></g><g data-view="plan"><ellipse cx="0" cy="642.893" rx="11.862" ry="12.645" fill="#111" stroke="#fff" stroke-width="1"></ellipse><path d="M -16.310344827586206 632.679938697318 L 11.862068965517242 630.7345593869732 L 16.310344827586206 636.0843524904215 L 16.310344827586206 649.7020076628353 L 11.862068965517242 655.0518007662836 L -16.310344827586206 653.1064214559387 Z" fill="#111" stroke="#fff" stroke-width="1"></path><rect x="13.345" y="637.94" width="25.042" height="1.8" fill="#111" stroke="#fff" stroke-width="0.6" data-secondary-barrel="secondary-1-2-0"></rect><rect x="13.345" y="646.046" width="25.042" height="1.8" fill="#111" stroke="#fff" stroke-width="0.6" data-secondary-barrel="secondary-1-2-1"></rect></g></g><g data-station="secondary-secondary-1-3" data-role="secondary" data-x-m="223.155" transform="translate(1570.6 0)"><g data-view="profile"><path d="M -15.420689655172414 305.4214559386973 L -15.420689655172414 295.6352490421456 L 9.489655172413793 292.0766283524904 L 16.310344827586206 298.8973180076628 L 16.310344827586206 305.4214559386973 Z" fill="#111" stroke="#fff" stroke-width="1"></path><line x1="14.234" y1="297.118" x2="39.277" y2="297.118" stroke="#111" stroke-width="1.8"></line></g><g data-view="plan"><ellipse cx="0" cy="642.893" rx="11.862" ry="12.645" fill="#111" stroke="#fff" stroke-width="1"></ellipse><path d="M -16.310344827586206 632.679938697318 L 11.862068965517242 630.7345593869732 L 16.310344827586206 636.0843524904215 L 16.310344827586206 649.7020076628353 L 11.862068965517242 655.0518007662836 L -16.310344827586206 653.1064214559387 Z" fill="#111" stroke="#fff" stroke-width="1"></path><rect x="13.345" y="637.94" width="25.042" height="1.8" fill="#111" stroke="#fff" stroke-width="0.6" data-secondary-barrel="secondary-1-3-0"></rect><rect x="13.345" y="646.046" width="25.042" height="1.8" fill="#111" stroke="#fff" stroke-width="0.6" data-secondary-barrel="secondary-1-3-1"></rect></g></g><g data-station="light-aa-aa--1-0" data-role="light-aa" data-x-m="138.33" transform="translate(1011.6 0)"><g data-view="profile"><path d="M -8.909731800766282 305.4214559386973 L -8.909731800766282 299.7672030651341 L 5.482911877394636 297.7111111111111 L 9.423754789272031 301.6519540229885 L 9.423754789272031 305.4214559386973 Z" fill="#111" stroke="#fff" stroke-width="1"></path><line x1="-8.224" y1="300.624" x2="-27.994" y2="300.624" stroke="#111" stroke-width="1.8"></line></g><g data-view="plan"><ellipse cx="0" cy="510.921" rx="6.854" ry="7.306" fill="#111" stroke="#fff" stroke-width="1"></ellipse><path d="M -9.423754789272031 505.02008888888895 L 6.853639846743295 503.89609195402306 L 9.423754789272031 506.9870835249043 L 9.423754789272031 514.8550620689656 L 6.853639846743295 517.9460536398468 L -9.423754789272031 516.8220567049809 Z" fill="#111" stroke="#fff" stroke-width="1"></path><rect x="-27.48" y="510.021" width="19.77" height="1.8" fill="#111" stroke="#fff" stroke-width="0.6" data-secondary-barrel="aa--1-0-0"></rect></g></g><g data-station="light-aa-aa--1-1" data-role="light-aa" data-x-m="177.48" transform="translate(1269.6 0)"><g data-view="profile"><path d="M -8.909731800766282 305.4214559386973 L -8.909731800766282 299.7672030651341 L 5.482911877394636 297.7111111111111 L 9.423754789272031 301.6519540229885 L 9.423754789272031 305.4214559386973 Z" fill="#111" stroke="#fff" stroke-width="1"></path><line x1="-8.224" y1="300.624" x2="-27.994" y2="300.624" stroke="#111" stroke-width="1.8"></line></g><g data-view="plan"><ellipse cx="0" cy="510.921" rx="6.854" ry="7.306" fill="#111" stroke="#fff" stroke-width="1"></ellipse><path d="M -9.423754789272031 505.02008888888895 L 6.853639846743295 503.89609195402306 L 9.423754789272031 506.9870835249043 L 9.423754789272031 514.8550620689656 L 6.853639846743295 517.9460536398468 L -9.423754789272031 516.8220567049809 Z" fill="#111" stroke="#fff" stroke-width="1"></path><rect x="-27.48" y="510.021" width="19.77" height="1.8" fill="#111" stroke="#fff" stroke-width="0.6" data-secondary-barrel="aa--1-1-0"></rect></g></g><g data-station="light-aa-aa--1-2" data-role="light-aa" data-x-m="200.97" transform="translate(1424.4 0)"><g data-view="profile"><path d="M -8.909731800766282 305.4214559386973 L -8.909731800766282 299.7672030651341 L 5.482911877394636 297.7111111111111 L 9.423754789272031 301.6519540229885 L 9.423754789272031 305.4214559386973 Z" fill="#111" stroke="#fff" stroke-width="1"></path><line x1="-8.224" y1="300.624" x2="-27.994" y2="300.624" stroke="#111" stroke-width="1.8"></line></g><g data-view="plan"><ellipse cx="0" cy="510.921" rx="6.854" ry="7.306" fill="#111" stroke="#fff" stroke-width="1"></ellipse><path d="M -9.423754789272031 505.02008888888895 L 6.853639846743295 503.89609195402306 L 9.423754789272031 506.9870835249043 L 9.423754789272031 514.8550620689656 L 6.853639846743295 517.9460536398468 L -9.423754789272031 516.8220567049809 Z" fill="#111" stroke="#fff" stroke-width="1"></path><rect x="-27.48" y="510.021" width="19.77" height="1.8" fill="#111" stroke="#fff" stroke-width="0.6" data-secondary-barrel="aa--1-2-0"></rect></g></g><g data-station="light-aa-aa-1-0" data-role="light-aa" data-x-m="138.33" transform="translate(1011.6 0)"><g data-view="profile"><path d="M -8.909731800766282 305.4214559386973 L -8.909731800766282 299.7672030651341 L 5.482911877394636 297.7111111111111 L 9.423754789272031 301.6519540229885 L 9.423754789272031 305.4214559386973 Z" fill="#111" stroke="#fff" stroke-width="1"></path><line x1="8.224" y1="300.624" x2="27.994" y2="300.624" stroke="#111" stroke-width="1.8"></line></g><g data-view="plan"><ellipse cx="0" cy="659.922" rx="6.854" ry="7.306" fill="#111" stroke="#fff" stroke-width="1"></ellipse><path d="M -9.423754789272031 654.0208551724138 L 6.853639846743295 652.8968582375479 L 9.423754789272031 655.9878498084291 L 9.423754789272031 663.8558283524904 L 6.853639846743295 666.9468199233717 L -9.423754789272031 665.8228229885058 Z" fill="#111" stroke="#fff" stroke-width="1"></path><rect x="7.71" y="659.022" width="19.77" height="1.8" fill="#111" stroke="#fff" stroke-width="0.6" data-secondary-barrel="aa-1-0-0"></rect></g></g><g data-station="light-aa-aa-1-1" data-role="light-aa" data-x-m="177.48" transform="translate(1269.6 0)"><g data-view="profile"><path d="M -8.909731800766282 305.4214559386973 L -8.909731800766282 299.7672030651341 L 5.482911877394636 297.7111111111111 L 9.423754789272031 301.6519540229885 L 9.423754789272031 305.4214559386973 Z" fill="#111" stroke="#fff" stroke-width="1"></path><line x1="8.224" y1="300.624" x2="27.994" y2="300.624" stroke="#111" stroke-width="1.8"></line></g><g data-view="plan"><ellipse cx="0" cy="659.922" rx="6.854" ry="7.306" fill="#111" stroke="#fff" stroke-width="1"></ellipse><path d="M -9.423754789272031 654.0208551724138 L 6.853639846743295 652.8968582375479 L 9.423754789272031 655.9878498084291 L 9.423754789272031 663.8558283524904 L 6.853639846743295 666.9468199233717 L -9.423754789272031 665.8228229885058 Z" fill="#111" stroke="#fff" stroke-width="1"></path><rect x="7.71" y="659.022" width="19.77" height="1.8" fill="#111" stroke="#fff" stroke-width="0.6" data-secondary-barrel="aa-1-1-0"></rect></g></g><g data-station="light-aa-aa-1-2" data-role="light-aa" data-x-m="200.97" transform="translate(1424.4 0)"><g data-view="profile"><path d="M -8.909731800766282 305.4214559386973 L -8.909731800766282 299.7672030651341 L 5.482911877394636 297.7111111111111 L 9.423754789272031 301.6519540229885 L 9.423754789272031 305.4214559386973 Z" fill="#111" stroke="#fff" stroke-width="1"></path><line x1="8.224" y1="300.624" x2="27.994" y2="300.624" stroke="#111" stroke-width="1.8"></line></g><g data-view="plan"><ellipse cx="0" cy="659.922" rx="6.854" ry="7.306" fill="#111" stroke="#fff" stroke-width="1"></ellipse><path d="M -9.423754789272031 654.0208551724138 L 6.853639846743295 652.8968582375479 L 9.423754789272031 655.9878498084291 L 9.423754789272031 663.8558283524904 L 6.853639846743295 666.9468199233717 L -9.423754789272031 665.8228229885058 Z" fill="#111" stroke="#fff" stroke-width="1"></path><rect x="7.71" y="659.022" width="19.77" height="1.8" fill="#111" stroke="#fff" stroke-width="0.6" data-secondary-barrel="aa-1-2-0"></rect></g></g><g data-station="catapult-0" data-role="catapult" data-x-m="246.384" transform="translate(1723.68 0)"><g data-view="profile"><rect x="-52.72" y="272.471" width="105.441" height="7.908" fill="#111" stroke="#fff" stroke-width="0.7"></rect><rect x="-6.59" y="279.061" width="13.18" height="26.36" fill="#111"></rect></g><g data-view="plan"><rect x="-52.72" y="572.241" width="105.441" height="26.36" fill="#111" stroke="#fff" stroke-width="0.8"></rect><line x1="-52.72" y1="572.241" x2="52.72" y2="598.602" stroke="#fff" stroke-width="0.7"></line><line x1="-52.72" y1="598.602" x2="52.72" y2="572.241" stroke="#fff" stroke-width="0.7"></line></g></g><g data-station="aircraft-crane" data-role="crane" data-x-m="257.085" transform="translate(1794.2 0)"><g data-view="profile"><line x1="0" y1="305.421" x2="0" y2="226.341" stroke="#111" stroke-width="2"></line><line x1="0" y1="226.341" x2="-52.72" y2="252.701" stroke="#111" stroke-width="2"></line><line x1="-52.72" y1="252.701" x2="-52.72" y2="285.651" stroke="#111" stroke-width="1"></line></g><g data-view="plan"><line x1="0" y1="585.421" x2="-52.72" y2="540.721" stroke="#fff" stroke-width="1.6"></line></g></g><g data-station="boat--1-0" data-role="boat" data-x-m="153.99" transform="translate(1114.8 0)"><g data-view="profile"><rect x="-1" y="302.421" width="2" height="3" fill="#111"></rect><path d="M -18 300.4214559386973 Q 0 308.4214559386973 18 300.4214559386973 Z" fill="#111" stroke="#fff" stroke-width="0.7"></path></g><g data-view="plan"><ellipse cx="0" cy="530.078" rx="20" ry="5" fill="#111" stroke="#fff" stroke-width="1"></ellipse></g></g><g data-station="boat--1-1" data-role="boat" data-x-m="180.09" transform="translate(1286.8 0)"><g data-view="profile"><rect x="-1" y="302.421" width="2" height="3" fill="#111"></rect><path d="M -18 300.4214559386973 Q 0 308.4214559386973 18 300.4214559386973 Z" fill="#111" stroke="#fff" stroke-width="0.7"></path></g><g data-view="plan"><ellipse cx="0" cy="530.078" rx="20" ry="5" fill="#111" stroke="#fff" stroke-width="1"></ellipse></g></g><g data-station="boat-1-0" data-role="boat" data-x-m="153.99" transform="translate(1114.8 0)"><g data-view="profile"><rect x="-1" y="302.421" width="2" height="3" fill="#111"></rect><path d="M -18 300.4214559386973 Q 0 308.4214559386973 18 300.4214559386973 Z" fill="#111" stroke="#fff" stroke-width="0.7"></path></g><g data-view="plan"><ellipse cx="0" cy="640.765" rx="20" ry="5" fill="#111" stroke="#fff" stroke-width="1"></ellipse></g></g><g data-station="boat-1-1" data-role="boat" data-x-m="180.09" transform="translate(1286.8 0)"><g data-view="profile"><rect x="-1" y="302.421" width="2" height="3" fill="#111"></rect><path d="M -18 300.4214559386973 Q 0 308.4214559386973 18 300.4214559386973 Z" fill="#111" stroke="#fff" stroke-width="0.7"></path></g><g data-view="plan"><ellipse cx="0" cy="640.765" rx="20" ry="5" fill="#111" stroke="#fff" stroke-width="1"></ellipse></g></g> </svg>
