<svg xmlns="http://www.w3.org/2000/svg" width="1600" height="760" viewBox="0 0 1200 570"><title>Naval Aircraft Factory PBN-1 Nomad</title><desc>PBN-1 Nomad flying boat supplied to Soviet naval aviation: long pointed bow, extended afterbody, enlarged tall fin, two R-1830 radial tractor engines, parasol wing and waist blisters. In-flight profile with tip floats folded into the wingtips and no wheeled undercarriage. This is an independent Nomad profile, not an unchanged PBY-5 or amphibious PBY-5A drawing. Minor armament and equipment details simplified.</desc><metadata id="recognition-profile">{&quot;format&quot;:1,&quot;method&quot;:&quot;Independent type-specific port-profile geometry from primary factual references&quot;,&quot;view&quot;:&quot;profile&quot;,&quot;referenceDimensions&quot;:true,&quot;length_m&quot;:19.84,&quot;span_m&quot;:31.7,&quot;engineCount&quot;:2,&quot;engineLayout&quot;:&quot;two radial tractor engines&quot;,&quot;wingPlanes&quot;:1,&quot;boatHull&quot;:true,&quot;floatCount&quot;:2,&quot;floatState&quot;:&quot;wingtip floats retracted&quot;,&quot;gear&quot;:&quot;flying boat; no retractable wheel undercarriage&quot;,&quot;crewSeats&quot;:8,&quot;recognitionFeatures&quot;:[&quot;extended pointed bow&quot;,&quot;long afterbody and aft second step&quot;,&quot;enlarged tall fin&quot;,&quot;waist blisters&quot;],&quot;limitations&quot;:&quot;Recognition profile only. Minor contours and fittings are simplified independent choices. Opposite engines, floats and tail surfaces overlap in profile; no unseen front or plan views asserted.&quot;}</metadata><rect width="1200" height="570" fill="white"/><g id="profile" fill="black" stroke-linejoin="round"><g data-feature="flying-boat-hull" ><path d="M116 367L158 346L216 342L246 317L310 317L330 334L420 335L442 251L478 236L509 254L533 337L666 344L810 337Q862 326 889 285L922 197L1027 240L1064 344L1043 367L858 399L853 417L742 420L491 458L480 447L303 452Q169 446 116 367Z" fill="black"/><path d="M127 377Q234 417 480 430L493 447L847 405L851 393L1037 361" fill="none" stroke="white" stroke-width="2" stroke-linejoin="round" stroke-linecap="round"/><path d="M491 447L479 433M853 400V414" fill="none" stroke="white" stroke-width="2" stroke-linejoin="round" stroke-linecap="round"/></g><g data-feature="enlarged-nomad-fin" ><path d="M810 338Q860 329 885 274L924 160Q934 142 967 141Q1019 141 1036 160L1066 343L1047 364L903 357Z" fill="black"/><path d="M977 155L1001 352M938 172H979M929 199L982 198M920 227L987 227M910 255L991 255M896 283L995 283M881 310L999 310" fill="none" stroke="white" stroke-width="1.6" stroke-linejoin="round" stroke-linecap="round"/></g><g data-feature="tailplane" ><path d="M889 278Q930 266 964 271L1063 289L1067 297L896 290Z" fill="black"/><path d="M923 280L1049 291" fill="none" stroke="white" stroke-width="2" stroke-linejoin="round" stroke-linecap="round"/></g><g data-feature="bow-turret" ><path d="M147 348L148 333Q154 313 176 314Q201 315 208 335L204 349Z" fill="black"/><path d="M160 322V344M175 320V346M190 325V347M153 337H201" fill="none" stroke="white" stroke-width="1.8" stroke-linejoin="round" stroke-linecap="round"/><path d="M150 334L115 328" fill="none" stroke="black" stroke-width="4" stroke-linejoin="round" stroke-linecap="round"/></g><g data-feature="cockpit" ><path d="M234 325L256 303L311 304L334 325L331 340L231 340Z" fill="black"/><path d="M244 324L260 312H273V330H244Z" fill="white"/><path d="M281 313h20v20h-20Z" fill="white"/><path d="M308 313L324 326V334H308Z" fill="white"/></g><g data-feature="wing-pylon" ><path d="M435 265Q449 240 480 242L506 255L524 338L436 337Z" fill="black"/><path d="M455 268L452 327M473 274L472 328" fill="none" stroke="white" stroke-width="1.4" stroke-linejoin="round" stroke-linecap="round"/></g><g data-feature="wing" ><path d="M344 224Q395.52 212 479.24 214Q591.94 219 666 228Q469.58 235 344 224Z" fill="black"/><path d="M359 225Q537.2 230 654 228" fill="none" stroke="white" stroke-width="1.4" stroke-linejoin="round" stroke-linecap="round"/></g><g data-feature="wing-bracing" ><path d="M450 343L443 232M524 345L536 235" fill="none" stroke="black" stroke-width="6" stroke-linejoin="round" stroke-linecap="round"/><path d="M447 248L452 329M533 250L525 331" fill="none" stroke="white" stroke-width="1.4" stroke-linejoin="round" stroke-linecap="round"/></g><g data-feature="engine" data-station="0" data-overlap="true" data-propulsion="Pratt Whitney R-1830 radial tractor"><path d="M318 196Q309 222 318 245L365 247L417 241L476 241L506 234L455 216L370 199Z" fill="black" stroke="white" stroke-width="1.3" stroke-linejoin="round" stroke-linecap="round"/><path d="M326 201Q322 223 327 241M356 204V242M369 207L370 241M380 210L381 239" fill="none" stroke="white" stroke-width="1.5" stroke-linejoin="round" stroke-linecap="round"/><path d="M380 199Q389 185 403 190L402 207Z" fill="black"/><g data-feature="propeller" data-blades="3"><path d="M299 142Q291 198 299 222Q310 254 304 302Q293 270 298 222Q309 182 299 142Z" fill="black"/><ellipse cx="301" cy="222" rx="8" ry="8" fill="black"/></g></g><g data-feature="engine" data-station="1" data-overlap="true" data-propulsion="Pratt Whitney R-1830 radial tractor"><path d="M318 196Q309 222 318 245L365 247L417 241L476 241L506 234L455 216L370 199Z" fill="black" stroke="white" stroke-width="1.3" stroke-linejoin="round" stroke-linecap="round"/><path d="M326 201Q322 223 327 241M356 204V242M369 207L370 241M380 210L381 239" fill="none" stroke="white" stroke-width="1.5" stroke-linejoin="round" stroke-linecap="round"/><path d="M380 199Q389 185 403 190L402 207Z" fill="black"/><g data-feature="propeller" data-blades="3"><path d="M299 142Q291 198 299 222Q310 254 304 302Q293 270 298 222Q309 182 299 142Z" fill="black"/><ellipse cx="301" cy="222" rx="8" ry="8" fill="black"/></g></g><g data-feature="retracted-tip-float" data-station="0" data-overlap="true"><path d="M390 229Q434 223 496 229L633 240Q571 248 479 243L410 240Z" fill="black" stroke="white" stroke-width="1.2" stroke-linejoin="round" stroke-linecap="round"/></g><g data-feature="retracted-tip-float" data-station="1" data-overlap="true"><path d="M390 229Q434 223 496 229L633 240Q571 248 479 243L410 240Z" fill="black" stroke="white" stroke-width="1.2" stroke-linejoin="round" stroke-linecap="round"/></g><g data-feature="waist-blister" ><path d="M659 351Q667 318 700 315Q744 320 788 357Q755 388 700 391Q663 388 659 351Z" fill="black" stroke="white" stroke-width="2.4" stroke-linejoin="round" stroke-linecap="round"/><path d="M673 350Q677 333 692 329L692 348Z" fill="white"/><path d="M700 328Q722 333 737 342L700 346Z" fill="white"/><path d="M700 355L739 352L762 359L740 369L700 369Z" fill="white"/><path d="M674 359L692 358V378Q680 375 674 359Z" fill="white"/><path d="M697 325V383M745 343L745 374" fill="none" stroke="white" stroke-width="1.8" stroke-linejoin="round" stroke-linecap="round"/></g><g data-feature="hatches" ><path d="M346 347h31v62h-31Z" fill="none" stroke="white" stroke-width="1.5" stroke-linejoin="round" stroke-linecap="round"/><path d="M382 355h24v15h-24Z" fill="white"/><path d="M551 370h14v7h-14Z" fill="white"/><path d="M622 367h14v7h-14Z" fill="white"/></g><path d="M218 355L215 427M322 345L322 441M426 352L426 441M582 352L582 432M650 348L650 422M807 356L806 397M923 347L922 374" fill="none" stroke="white" stroke-width="1.4" stroke-linejoin="round" stroke-linecap="round"/><g data-feature="antenna" ><path d="M343 273L950 161M343 273V319" fill="none" stroke="black" stroke-width="1.2" stroke-linejoin="round" stroke-linecap="round"/></g></g></svg>
