<svg xmlns="http://www.w3.org/2000/svg" viewBox="0 0 1920 721.501" role="img" aria-labelledby="title desc"><title id="title">École submarine, 1937 recognition drawing</title><desc id="desc">Original WNT1922 École submarine, 1937 recognition illustration. Port profile and deck plan share one hull length and equipment stations. Dimensions and unspecified layout are illustration choices. Fitted catalog main battery: 1 barrels. Internal submarine tubes are not depicted as exposed deck mounts.</desc><metadata id="recognition-geometry">{&quot;schema&quot;:1,&quot;kind&quot;:&quot;ship&quot;,&quot;platformIds&quot;:[&quot;ecole_ss37&quot;],&quot;length_m&quot;:95,&quot;beam_m&quot;:8.2,&quot;dimensionsAreIllustrationChoices&quot;:true,&quot;scale_px_per_m&quot;:18.105263157894736,&quot;hullDatums&quot;:{&quot;profile&quot;:{&quot;x&quot;:100,&quot;y&quot;:280,&quot;length&quot;:1720},&quot;plan&quot;:{&quot;x&quot;:100,&quot;y&quot;:560,&quot;length&quot;:1720}},&quot;mainMounts&quot;:1,&quot;mainBarrels&quot;:1,&quot;torpedoTubes&quot;:10,&quot;catapults&quot;:0,&quot;stations&quot;:[{&quot;id&quot;:&quot;main-0&quot;,&quot;role&quot;:&quot;main&quot;,&quot;x_m&quot;:32.300000000000004,&quot;z_m&quot;:0,&quot;barrels&quot;:1,&quot;direction&quot;:-1,&quot;tier&quot;:0,&quot;lateral_m&quot;:0,&quot;length_m&quot;:2.86,&quot;beam_m&quot;:2.132,&quot;barrel_length_m&quot;:2.5},{&quot;id&quot;:&quot;conning-tower&quot;,&quot;role&quot;:&quot;conning-tower&quot;,&quot;x_m&quot;:46.55,&quot;z_m&quot;:0,&quot;base_y&quot;:213.355,&quot;length_m&quot;:9.5,&quot;beam_m&quot;:3.608},{&quot;id&quot;:&quot;hatch-0.19&quot;,&quot;role&quot;:&quot;hatch&quot;,&quot;x_m&quot;:18.05,&quot;z_m&quot;:0},{&quot;id&quot;:&quot;hatch-0.27&quot;,&quot;role&quot;:&quot;hatch&quot;,&quot;x_m&quot;:25.650000000000002,&quot;z_m&quot;:0},{&quot;id&quot;:&quot;hatch-0.72&quot;,&quot;role&quot;:&quot;hatch&quot;,&quot;x_m&quot;:68.39999999999999,&quot;z_m&quot;:0},{&quot;id&quot;:&quot;hatch-0.81&quot;,&quot;role&quot;:&quot;hatch&quot;,&quot;x_m&quot;:76.95,&quot;z_m&quot;:0},{&quot;id&quot;:&quot;stern-planes&quot;,&quot;role&quot;:&quot;hydroplanes&quot;,&quot;x_m&quot;:86.45,&quot;z_m&quot;:0,&quot;length_m&quot;:2,&quot;beam_m&quot;:9.184},{&quot;id&quot;:&quot;bow-planes&quot;,&quot;role&quot;:&quot;hydroplanes&quot;,&quot;x_m&quot;:16.150000000000002,&quot;z_m&quot;:0,&quot;length_m&quot;:1.6,&quot;beam_m&quot;:8.692}],&quot;method&quot;:&quot;Each equipment station is a single SVG group with one longitudinal translation containing both orthographic projections. Equipment moves together when that shared transform is edited.&quot;}</metadata><rect x="0" y="0" width="1920" height="721.501" fill="#fff"></rect><path d="M 100 264.0847494736842 Q 155 218.32840421052632 280 213.35488842105264 L 1530 213.35488842105264 Q 1730 218.32840421052632 1820 270.05296842105264 Q 1720 319.7881263157895 1560 326.75104842105264 L 290 326.75104842105264 Q 145 319.7881263157895 100 264.0847494736842 Z" fill="#111" data-hull-view="profile" data-length-m="95"></path><path d="M 100 560 C 200 512.4917894736842 320 488.7376842105263 590 485.7684210526316 L 1310 485.7684210526316 Q 1680 496.16084210526316 1820 560 Q 1680 623.8391578947369 1310 634.2315789473685 L 590 634.2315789473685 C 320 631.2623157894736 200 607.5082105263158 100 560 Z" fill="#111" data-hull-view="plan" data-length-m="95" data-beam-m="8.2"></path><g data-station="main-0" data-role="main" data-x-m="32.3" transform="translate(684.8 0)"><g data-view="profile"><path d="M -24.478315789473687 213.35488842105264 L -24.478315789473687 197.82057263157895 L 15.063578947368422 192.1717305263158 L 25.890526315789476 202.99867789473686 L 25.890526315789476 213.35488842105264 Z" fill="#111" stroke="#fff" stroke-width="1"></path><line x1="-22.595" y1="200.174" x2="-67.859" y2="200.174" stroke="#111" stroke-width="2.173"></line></g><g data-view="plan"><ellipse cx="0" cy="560" rx="18.829" ry="20.072" fill="#111" stroke="#fff" stroke-width="1"></ellipse><path d="M -25.890526315789476 543.7878231578948 L 18.829473684210527 540.6997894736842 L 25.890526315789476 549.1918821052632 L 25.890526315789476 570.8081178947368 L 18.829473684210527 579.3002105263158 L -25.890526315789476 576.2121768421052 Z" fill="#111" stroke="#fff" stroke-width="1"></path><rect x="-66.446" y="558.914" width="45.263" height="2.173" fill="#111" stroke="#fff" stroke-width="0.6" data-main-barrel="0-0"></rect></g></g><g data-station="conning-tower" data-role="conning-tower" data-x-m="46.55" transform="translate(942.8 0)"><g data-view="profile"><rect x="-77.4" y="131.881" width="172" height="81.474" fill="#111" rx="22.36" stroke="#fff" stroke-width="0.8"></rect><line x1="-27.158" y1="131.881" x2="-24.442" y2="63.081" stroke="#111" stroke-width="2"></line><line x1="18.105" y1="131.881" x2="20.821" y2="63.081" stroke="#111" stroke-width="2"></line></g><g data-view="plan"><rect x="-77.4" y="527.338" width="172" height="65.324" fill="#111" rx="30.96" stroke="#fff" stroke-width="1"></rect><ellipse cx="-27.158" cy="560" rx="2" ry="2" fill="#fff"></ellipse><ellipse cx="18.105" cy="560" rx="2" ry="2" fill="#fff"></ellipse></g></g><g data-station="hatch-0.19" data-role="hatch" data-x-m="18.05" transform="translate(426.8 0)"><g data-view="profile"><line x1="-9.053" y1="213.355" x2="9.053" y2="213.355" stroke="#fff" stroke-width="1"></line></g><g data-view="plan"><ellipse cx="0" cy="560" rx="9.053" ry="9.053" fill="#111" stroke="#fff" stroke-width="1"></ellipse></g></g><g data-station="hatch-0.27" data-role="hatch" data-x-m="25.65" transform="translate(564.4 0)"><g data-view="profile"><line x1="-9.053" y1="213.355" x2="9.053" y2="213.355" stroke="#fff" stroke-width="1"></line></g><g data-view="plan"><ellipse cx="0" cy="560" rx="9.053" ry="9.053" fill="#111" stroke="#fff" stroke-width="1"></ellipse></g></g><g data-station="hatch-0.72" data-role="hatch" data-x-m="68.4" transform="translate(1338.4 0)"><g data-view="profile"><line x1="-9.053" y1="213.355" x2="9.053" y2="213.355" stroke="#fff" stroke-width="1"></line></g><g data-view="plan"><ellipse cx="0" cy="560" rx="9.053" ry="9.053" fill="#111" stroke="#fff" stroke-width="1"></ellipse></g></g><g data-station="hatch-0.81" data-role="hatch" data-x-m="76.95" transform="translate(1493.2 0)"><g data-view="profile"><line x1="-9.053" y1="213.355" x2="9.053" y2="213.355" stroke="#fff" stroke-width="1"></line></g><g data-view="plan"><ellipse cx="0" cy="560" rx="9.053" ry="9.053" fill="#111" stroke="#fff" stroke-width="1"></ellipse></g></g><g data-station="stern-planes" data-role="hydroplanes" data-x-m="86.45" transform="translate(1665.2 0)"><g data-view="profile"><line x1="-18.105" y1="280" x2="21.726" y2="280" stroke="#fff" stroke-width="1.2"></line></g><g data-view="plan"><path d="M -18.105263157894736 527.3381052631579 L -10.863157894736842 476.8606315789474 L 12.673684210526314 476.8606315789474 L 21.726315789473684 527.3381052631579 L 21.726315789473684 592.6618947368421 L 12.673684210526314 643.1393684210526 L -10.863157894736842 643.1393684210526 L -18.105263157894736 592.6618947368421 Z" fill="#111" stroke="#fff" stroke-width="0.8"></path></g></g><g data-station="bow-planes" data-role="hydroplanes" data-x-m="16.15" transform="translate(392.4 0)"><g data-view="profile"><line x1="-14.484" y1="280" x2="17.381" y2="280" stroke="#fff" stroke-width="1.2"></line></g><g data-view="plan"><path d="M -14.48421052631579 527.3381052631579 L -8.690526315789473 481.31452631578946 L 10.138947368421052 481.31452631578946 L 17.381052631578946 527.3381052631579 L 17.381052631578946 592.6618947368421 L 10.138947368421052 638.6854736842105 L -8.690526315789473 638.6854736842105 L -14.48421052631579 592.6618947368421 Z" fill="#111" stroke="#fff" stroke-width="0.8"></path></g></g> </svg>
