<svg xmlns="http://www.w3.org/2000/svg" viewBox="0 0 1920 722.16" role="img" aria-labelledby="title desc"><title id="title">Sturgeon class recognition drawing</title><desc id="desc">Original WNT1922 Sturgeon class recognition illustration. Port profile and deck plan share one hull length and equipment stations. Hull dimensions follow the catalog. Fitted catalog main battery: 1 barrels. Internal submarine tubes are not depicted as exposed deck mounts.</desc><metadata id="recognition-geometry">{&quot;schema&quot;:1,&quot;kind&quot;:&quot;ship&quot;,&quot;platformIds&quot;:[&quot;sturgeon_ss23&quot;],&quot;length_m&quot;:84,&quot;beam_m&quot;:7.3,&quot;dimensionsAreIllustrationChoices&quot;:false,&quot;scale_px_per_m&quot;:20.476190476190474,&quot;hullDatums&quot;:{&quot;profile&quot;:{&quot;x&quot;:100,&quot;y&quot;:280,&quot;length&quot;:1720},&quot;plan&quot;:{&quot;x&quot;:100,&quot;y&quot;:560,&quot;length&quot;:1720}},&quot;mainMounts&quot;:1,&quot;mainBarrels&quot;:1,&quot;torpedoTubes&quot;:7,&quot;catapults&quot;:0,&quot;stations&quot;:[{&quot;id&quot;:&quot;main-0&quot;,&quot;role&quot;:&quot;main&quot;,&quot;x_m&quot;:28.560000000000002,&quot;z_m&quot;:0,&quot;barrels&quot;:1,&quot;direction&quot;:-1,&quot;tier&quot;:0,&quot;lateral_m&quot;:0,&quot;length_m&quot;:2.86,&quot;beam_m&quot;:2.132,&quot;barrel_length_m&quot;:2.55},{&quot;id&quot;:&quot;conning-tower&quot;,&quot;role&quot;:&quot;conning-tower&quot;,&quot;x_m&quot;:41.16,&quot;z_m&quot;:0,&quot;base_y&quot;:212.9,&quot;length_m&quot;:9.5,&quot;beam_m&quot;:3.212},{&quot;id&quot;:&quot;hatch-0.19&quot;,&quot;role&quot;:&quot;hatch&quot;,&quot;x_m&quot;:15.96,&quot;z_m&quot;:0},{&quot;id&quot;:&quot;hatch-0.27&quot;,&quot;role&quot;:&quot;hatch&quot;,&quot;x_m&quot;:22.68,&quot;z_m&quot;:0},{&quot;id&quot;:&quot;hatch-0.72&quot;,&quot;role&quot;:&quot;hatch&quot;,&quot;x_m&quot;:60.48,&quot;z_m&quot;:0},{&quot;id&quot;:&quot;hatch-0.81&quot;,&quot;role&quot;:&quot;hatch&quot;,&quot;x_m&quot;:68.04,&quot;z_m&quot;:0},{&quot;id&quot;:&quot;stern-planes&quot;,&quot;role&quot;:&quot;hydroplanes&quot;,&quot;x_m&quot;:76.44,&quot;z_m&quot;:0,&quot;length_m&quot;:2,&quot;beam_m&quot;:8.176},{&quot;id&quot;:&quot;bow-planes&quot;,&quot;role&quot;:&quot;hydroplanes&quot;,&quot;x_m&quot;:14.280000000000001,&quot;z_m&quot;:0,&quot;length_m&quot;:1.6,&quot;beam_m&quot;:7.738}],&quot;method&quot;:&quot;Each equipment station is a single SVG group with one longitudinal translation containing both orthographic projections. Equipment moves together when that shared transform is edited.&quot;}</metadata><rect x="0" y="0" width="1920" height="722.16" fill="#fff"></rect><path d="M 100 263.9761523809524 Q 155 217.90759047619048 280 212.9001380952381 L 1530 212.9001380952381 Q 1730 217.90759047619048 1820 269.98509523809525 Q 1720 320.05961904761904 1560 327.07005238095235 L 290 327.07005238095235 Q 145 320.05961904761904 100 263.9761523809524 Z" fill="#111" data-hull-view="profile" data-length-m="84"></path><path d="M 100 560 C 200 512.167619047619 320 488.2514285714286 590 485.26190476190476 L 1310 485.26190476190476 Q 1680 495.7252380952381 1820 560 Q 1680 624.2747619047619 1310 634.7380952380952 L 590 634.7380952380952 C 320 631.7485714285714 200 607.832380952381 100 560 Z" fill="#111" data-hull-view="plan" data-length-m="84" data-beam-m="7.3"></path><g data-station="main-0" data-role="main" data-x-m="28.56" transform="translate(684.8 0)"><g data-view="profile"><path d="M -27.683809523809522 212.9001380952381 L -27.683809523809522 195.33156666666667 L 17.036190476190477 188.94299523809525 L 29.28095238095238 201.18775714285715 L 29.28095238095238 212.9001380952381 Z" fill="#111" stroke="#fff" stroke-width="1"></path><line x1="-25.554" y1="197.993" x2="-77.769" y2="197.993" stroke="#111" stroke-width="2.506"></line></g><g data-view="plan"><ellipse cx="0" cy="560" rx="21.295" ry="22.701" fill="#111" stroke="#fff" stroke-width="1"></ellipse><path d="M -29.28095238095238 541.6648 L 21.295238095238094 538.172380952381 L 29.28095238095238 547.7765333333333 L 29.28095238095238 572.2234666666667 L 21.295238095238094 581.827619047619 L -29.28095238095238 578.3352 Z" fill="#111" stroke="#fff" stroke-width="1"></path><rect x="-76.171" y="558.747" width="52.214" height="2.506" fill="#111" stroke="#fff" stroke-width="0.6" data-main-barrel="0-0"></rect></g></g><g data-station="conning-tower" data-role="conning-tower" data-x-m="41.16" transform="translate(942.8 0)"><g data-view="profile"><rect x="-87.536" y="120.757" width="194.524" height="92.143" fill="#111" rx="25.288" stroke="#fff" stroke-width="0.8"></rect><line x1="-30.714" y1="120.757" x2="-27.643" y2="51.957" stroke="#111" stroke-width="2"></line><line x1="20.476" y1="120.757" x2="23.548" y2="51.957" stroke="#111" stroke-width="2"></line></g><g data-view="plan"><rect x="-87.536" y="527.115" width="194.524" height="65.77" fill="#111" rx="35.014" stroke="#fff" stroke-width="1"></rect><ellipse cx="-30.714" cy="560" rx="2" ry="2" fill="#fff"></ellipse><ellipse cx="20.476" cy="560" rx="2" ry="2" fill="#fff"></ellipse></g></g><g data-station="hatch-0.19" data-role="hatch" data-x-m="15.96" transform="translate(426.8 0)"><g data-view="profile"><line x1="-10.238" y1="212.9" x2="10.238" y2="212.9" stroke="#fff" stroke-width="1"></line></g><g data-view="plan"><ellipse cx="0" cy="560" rx="10.238" ry="10.238" fill="#111" stroke="#fff" stroke-width="1"></ellipse></g></g><g data-station="hatch-0.27" data-role="hatch" data-x-m="22.68" transform="translate(564.4 0)"><g data-view="profile"><line x1="-10.238" y1="212.9" x2="10.238" y2="212.9" stroke="#fff" stroke-width="1"></line></g><g data-view="plan"><ellipse cx="0" cy="560" rx="10.238" ry="10.238" fill="#111" stroke="#fff" stroke-width="1"></ellipse></g></g><g data-station="hatch-0.72" data-role="hatch" data-x-m="60.48" transform="translate(1338.4 0)"><g data-view="profile"><line x1="-10.238" y1="212.9" x2="10.238" y2="212.9" stroke="#fff" stroke-width="1"></line></g><g data-view="plan"><ellipse cx="0" cy="560" rx="10.238" ry="10.238" fill="#111" stroke="#fff" stroke-width="1"></ellipse></g></g><g data-station="hatch-0.81" data-role="hatch" data-x-m="68.04" transform="translate(1493.2 0)"><g data-view="profile"><line x1="-10.238" y1="212.9" x2="10.238" y2="212.9" stroke="#fff" stroke-width="1"></line></g><g data-view="plan"><ellipse cx="0" cy="560" rx="10.238" ry="10.238" fill="#111" stroke="#fff" stroke-width="1"></ellipse></g></g><g data-station="stern-planes" data-role="hydroplanes" data-x-m="76.44" transform="translate(1665.2 0)"><g data-view="profile"><line x1="-20.476" y1="280" x2="24.571" y2="280" stroke="#fff" stroke-width="1.2"></line></g><g data-view="plan"><path d="M -20.476190476190474 527.115238095238 L -12.285714285714285 476.29333333333335 L 14.33333333333333 476.29333333333335 L 24.57142857142857 527.115238095238 L 24.57142857142857 592.884761904762 L 14.33333333333333 643.7066666666667 L -12.285714285714285 643.7066666666667 L -20.476190476190474 592.884761904762 Z" fill="#111" stroke="#fff" stroke-width="0.8"></path></g></g><g data-station="bow-planes" data-role="hydroplanes" data-x-m="14.28" transform="translate(392.4 0)"><g data-view="profile"><line x1="-16.381" y1="280" x2="19.657" y2="280" stroke="#fff" stroke-width="1.2"></line></g><g data-view="plan"><path d="M -16.38095238095238 527.115238095238 L -9.828571428571427 480.77761904761905 L 11.466666666666665 480.77761904761905 L 19.657142857142855 527.115238095238 L 19.657142857142855 592.884761904762 L 11.466666666666665 639.222380952381 L -9.828571428571427 639.222380952381 L -16.38095238095238 592.884761904762 Z" fill="#111" stroke="#fff" stroke-width="0.8"></path></g></g> </svg>
