<svg xmlns="http://www.w3.org/2000/svg" width="1600" height="760" viewBox="0 0 1200 570"><title>Supermarine Spitfire Mk XIV</title><desc>Griffon-powered high-back Mk XIV with larger fin/rudder, prominent cylinder-bank fairing and five-blade propeller. Single-seat, standard-span fighter, clean external stores and main landing gear retracted. Port profile only; opposite radiator and hidden propeller blades overlap. Simplified original interpretation, not a tracing or a claim to show a particular squadron airframe.</desc><metadata id="recognition-profile">{"format":1,"method":"Independently authored port-profile geometry","view":"profile","referenceDimensions":true,"length_m":9.96,"span_m":11.23,"engineCount":1,"crewSeats":1,"wingPlanes":1,"gear":"all landing gear retracted","propellerBlades":5,"limitations":"Recognition silhouette only. Minor fittings and panel lines are simplified original choices; no unseen plan/front views or engineering accuracy asserted."}</metadata><rect width="1200" height="570" fill="white"/><g id="profile" fill="black" stroke-linejoin="round"><path d="M178 278Q231 240 345 271L435 267L481 250L508 251Q545 255 560 276L642 286L948 324L1048 318L1057 335L991 349L697 375L444 397Q338 394 260 371L178 336Z" fill="black"/><g data-feature="fin" ><path d="M923 323L961 237Q978 207 996 208Q1030 211 1048 255L1060 322L1056 340L975 343Z" fill="black"/></g><path d="M1005 219Q1023 259 1021 331" fill="none" stroke="white" stroke-width="1.5" stroke-linejoin="round" stroke-linecap="round"/><g data-feature="tailplane" ><path d="M887 331Q918 318 955 326L1071 340Q1006 354 895 343Z" fill="black"/><path d="M919 335L1055 341" fill="none" stroke="white" stroke-width="1.5" stroke-linejoin="round" stroke-linecap="round"/></g><g data-feature="engine" data-station="0" data-propulsion="Rolls Royce Griffon inline tractor"><path d="M193 279Q249 268 344 276M196 330Q252 350 346 352M346 278L350 377" fill="none" stroke="white" stroke-width="1.5" stroke-linejoin="round" stroke-linecap="round"/><g data-feature="exhaust" ><path d="M213 293l8 -1 2 8 -10 3Z" fill="white"/><path d="M231 293l8 -1 2 8 -10 3Z" fill="white"/><path d="M249 293l8 -1 2 8 -10 3Z" fill="white"/><path d="M267 293l8 -1 2 8 -10 3Z" fill="white"/><path d="M285 293l8 -1 2 8 -10 3Z" fill="white"/><path d="M303 293l8 -1 2 8 -10 3Z" fill="white"/></g><path d="M211 276Q262 246 335 269L334 282Q263 272 213 287Z" fill="black"/><path d="M223 277Q274 262 322 275" fill="none" stroke="white" stroke-width="2" stroke-linejoin="round" stroke-linecap="round"/></g><g data-feature="propeller" data-blades="5"><path d="M148 158Q139 254.85 147 307Q159 388.95 153 456Q143 396.4 147 307Q160 217.60000000000002 148 158Z" fill="black"/></g><path d="M111 306Q135 279 178 277L178 339Q132 334 111 306Z" fill="black"/><path d="M162 284V333" fill="none" stroke="white" stroke-width="1.5" stroke-linejoin="round" stroke-linecap="round"/><g data-feature="canopy" ><path d="M435 268L477 226Q493 216 514 218Q550 221 564 270L558 278L480 274Z" fill="black"/><path d="M447 261L478 236L481 261Z" fill="white"/><path d="M489 231Q503 226 516 228Q540 231 551 263L490 264Z" fill="white"/><path d="M479 273L480 382M554 277L551 373M485 371L549 371" fill="none" stroke="white" stroke-width="1.5" stroke-linejoin="round" stroke-linecap="round"/></g><g data-feature="wing" ><path d="M329 362Q383 340 440 353Q522 371 663 391L654 402Q474 407 329 374Z" fill="black"/><path d="M354 370Q474 388 638 394" fill="none" stroke="white" stroke-width="1.5" stroke-linejoin="round" stroke-linecap="round"/></g><g data-feature="radiator" data-count="2" data-overlap="true"><path d="M488 398L497 425L584 423L594 400Z" fill="black"/><path d="M502 404V419M510 405V418M518 405V418M526 405V418M534 405V418M542 405V418M550 405V418M558 405V418M566 405V418" fill="none" stroke="white" stroke-width="1.5" stroke-linejoin="round" stroke-linecap="round"/></g><g data-feature="intake" ><path d="M267 373Q294 398 334 398L353 388L351 378Z" fill="black"/><path d="M278 384L333 390" fill="none" stroke="white" stroke-width="1.5" stroke-linejoin="round" stroke-linecap="round"/></g><path d="M644 292L637 373M799 313L793 357M908 326L902 348M376 289L422 283M376 348L423 350" fill="none" stroke="white" stroke-width="1.5" stroke-linejoin="round" stroke-linecap="round"/><g data-feature="wing-cannon" ><path d="M309 360L279 359L277 365L330 370Z" fill="black"/></g></g></svg>
