<svg xmlns="http://www.w3.org/2000/svg" width="1600" height="760" viewBox="0 0 1200 570"><title>Farman F.221</title><desc>Production Farman F.221 heavy bomber: four cowled Gnome-Rhône radial engines in two tandem tractor/pusher pairs, high braced wing, rectangular deep fuselage, single fin, fixed main wheels and tail wheel. Enclosed bow and dorsal gun positions plus ventral position. Port profile; opposite nacelle overlaps. Distinct from the later retractable-gear F.222 and twin-fin F.223.</desc><metadata id="recognition-profile">{&quot;format&quot;:1,&quot;method&quot;:&quot;Independently authored type-specific profile geometry&quot;,&quot;view&quot;:&quot;profile&quot;,&quot;referenceDimensions&quot;:true,&quot;length_m&quot;:21.5,&quot;span_m&quot;:36,&quot;engineCount&quot;:4,&quot;engineLayout&quot;:&quot;two tandem tractor/pusher radial pairs&quot;,&quot;wingPlanes&quot;:1,&quot;boatHull&quot;:false,&quot;floatCount&quot;:0,&quot;gear&quot;:&quot;fixed main wheels and tail wheel&quot;,&quot;crewSeats&quot;:5,&quot;limitations&quot;:&quot;Profile recognition illustration, not an engineering drawing. Minor contours and panel details are simplified original choices; opposite engines and floats overlap in profile. No unseen plan or front view asserted.&quot;}</metadata><rect width="1200" height="570" fill="white"/><g id="profile" fill="black" stroke-linejoin="round"><g data-feature="fuselage" ><path d="M151 300L243 299L281 281L324 282L354 253L422 253L452 273L583 274L820 309L1034 324L1047 340L1027 364L936 372L681 399L608 405L471 397L271 394L223 388L154 383Z" fill="black"/><path d="M265 302L265 385M472 285L472 389M596 284L596 394M710 309L710 391M847 326L847 376M935 338L935 363" fill="none" stroke="white" stroke-width="1.6" stroke-linejoin="round" stroke-linecap="round"/></g><g data-feature="fin" ><path d="M863 328L881 210L940 210L1042 328L1042 363L931 373Z" fill="black"/><path d="M922 217L922 365M887 238H936M884 265H959M880 290H982M878 312H1000" fill="none" stroke="white" stroke-width="1.5" stroke-linejoin="round" stroke-linecap="round"/></g><g data-feature="tailplane" ><path d="M871 339Q922 330 966 336L1075 350L1071 357L890 349Z" fill="black"/><path d="M911 344L1055 352" fill="none" stroke="white" stroke-width="2" stroke-linejoin="round" stroke-linecap="round"/></g><g data-feature="tail-bracing" ><path d="M900 349L931 375M1018 355L989 369" fill="none" stroke="black" stroke-width="3" stroke-linejoin="round" stroke-linecap="round"/></g><g data-feature="cockpit" ><path d="M333 275L357 248L423 248L452 274L453 295L332 295Z" fill="black"/><path d="M343 275L361 257H373V281H343Z" fill="white"/><path d="M381 257h34v27h-34Z" fill="white"/><path d="M423 257L442 276V284H423Z" fill="white"/></g><g data-feature="nose-turret" ><path d="M141 302L140 279Q141 248 163 247Q186 247 192 279L191 303Z" fill="black"/><path d="M153 254V297M165 251V298M177 256V299M145 279H187" fill="none" stroke="white" stroke-width="2" stroke-linejoin="round" stroke-linecap="round"/><path d="M144 274L104 266" fill="none" stroke="black" stroke-width="3.5" stroke-linejoin="round" stroke-linecap="round"/></g><g data-feature="bombardier-glazing" ><path d="M151 323h18v17h-18Z" fill="white"/><path d="M176 323h18v17h-18Z" fill="white"/><path d="M201 323h20v17h-20Z" fill="white"/><path d="M152 347h18v20h-18Z" fill="white"/><path d="M177 347h18v20h-18Z" fill="white"/><path d="M202 347h20v20h-20Z" fill="white"/><path d="M229 331h18v18h-18Z" fill="white"/><path d="M229 356h18v20h-18Z" fill="white"/></g><g data-feature="wing" ><path d="M348 252Q406.14 241 477.20000000000005 243Q596.71 248 671 255Q477.20000000000005 263 348 252Z" fill="black"/><path d="M363 253Q525.65 257 659 255" fill="none" stroke="white" stroke-width="1.5" stroke-linejoin="round" stroke-linecap="round"/></g><g data-feature="stub-wing" ><path d="M384 352L592 352L621 366L390 364Z" fill="black"/><path d="M395 357H593" fill="none" stroke="white" stroke-width="2" stroke-linejoin="round" stroke-linecap="round"/></g><g data-feature="engine-bracing" ><path d="M380 261L405 375M433 260L547 379M582 260L567 379M661 259L589 383" fill="none" stroke="black" stroke-width="5.5" stroke-linejoin="round" stroke-linecap="round"/><path d="M380 273L405 368M436 272L547 372M582 275L569 372M655 275L590 376" fill="none" stroke="white" stroke-width="1.4" stroke-linejoin="round" stroke-linecap="round"/></g><g data-feature="engine" transform="translate(0 40)" data-station="0" data-overlap="true" data-propulsion="Gnome Rhone radial tractor"><path d="M327 318Q318 343 327 370L370 370Q379 341 370 315Z" fill="black" stroke="white" stroke-width="1.5" stroke-linejoin="round" stroke-linecap="round"/><path d="M335 322Q330 343 335 366M362 321Q369 343 362 366" fill="none" stroke="white" stroke-width="1.5" stroke-linejoin="round" stroke-linecap="round"/><path d="M371 325L453 331L453 364L371 367Z" fill="black" stroke="white" stroke-width="1.5" stroke-linejoin="round" stroke-linecap="round"/><path d="M385 338H442M385 352H442" fill="none" stroke="white" stroke-width="1.4" stroke-linejoin="round" stroke-linecap="round"/><g data-feature="propeller" data-blades="3"><path d="M308 274Q301 321.6 308 342Q319 369.2 313 410Q302 382.8 307 342Q318 308 308 274Z" fill="black"/><ellipse cx="310" cy="342" rx="8" ry="8" fill="black"/></g><path d="M310 280V357" fill="none" stroke="white" stroke-width="1.7" stroke-linejoin="round" stroke-linecap="round"/></g><g data-feature="engine" transform="translate(0 40)" data-station="1" data-overlap="true" data-propulsion="Gnome Rhone radial tractor"><path d="M327 318Q318 343 327 370L370 370Q379 341 370 315Z" fill="black" stroke="white" stroke-width="1.5" stroke-linejoin="round" stroke-linecap="round"/><path d="M335 322Q330 343 335 366M362 321Q369 343 362 366" fill="none" stroke="white" stroke-width="1.5" stroke-linejoin="round" stroke-linecap="round"/><path d="M371 325L453 331L453 364L371 367Z" fill="black" stroke="white" stroke-width="1.5" stroke-linejoin="round" stroke-linecap="round"/><path d="M385 338H442M385 352H442" fill="none" stroke="white" stroke-width="1.4" stroke-linejoin="round" stroke-linecap="round"/><g data-feature="propeller" data-blades="3"><path d="M308 274Q301 321.6 308 342Q319 369.2 313 410Q302 382.8 307 342Q318 308 308 274Z" fill="black"/><ellipse cx="310" cy="342" rx="8" ry="8" fill="black"/></g><path d="M310 280V357" fill="none" stroke="white" stroke-width="1.7" stroke-linejoin="round" stroke-linecap="round"/></g><g data-feature="engine" transform="translate(0 40)" data-station="2" data-overlap="true" data-propulsion="Gnome Rhone radial pusher"><path d="M556 318Q547 343 556 370L599 370Q608 341 599 315Z" fill="black" stroke="white" stroke-width="1.5" stroke-linejoin="round" stroke-linecap="round"/><path d="M564 322Q559 343 564 366M591 321Q598 343 591 366" fill="none" stroke="white" stroke-width="1.5" stroke-linejoin="round" stroke-linecap="round"/><path d="M473 331L556 325L556 367L473 364Z" fill="black" stroke="white" stroke-width="1.5" stroke-linejoin="round" stroke-linecap="round"/><path d="M483 338H546M483 352H546" fill="none" stroke="white" stroke-width="1.4" stroke-linejoin="round" stroke-linecap="round"/><g data-feature="propeller" data-blades="3"><path d="M613 274Q606 321.6 613 342Q624 369.2 618 410Q607 382.8 612 342Q623 308 613 274Z" fill="black"/><ellipse cx="615" cy="342" rx="8" ry="8" fill="black"/></g><path d="M615 280V357" fill="none" stroke="white" stroke-width="1.7" stroke-linejoin="round" stroke-linecap="round"/></g><g data-feature="engine" transform="translate(0 40)" data-station="3" data-overlap="true" data-propulsion="Gnome Rhone radial pusher"><path d="M556 318Q547 343 556 370L599 370Q608 341 599 315Z" fill="black" stroke="white" stroke-width="1.5" stroke-linejoin="round" stroke-linecap="round"/><path d="M564 322Q559 343 564 366M591 321Q598 343 591 366" fill="none" stroke="white" stroke-width="1.5" stroke-linejoin="round" stroke-linecap="round"/><path d="M473 331L556 325L556 367L473 364Z" fill="black" stroke="white" stroke-width="1.5" stroke-linejoin="round" stroke-linecap="round"/><path d="M483 338H546M483 352H546" fill="none" stroke="white" stroke-width="1.4" stroke-linejoin="round" stroke-linecap="round"/><g data-feature="propeller" data-blades="3"><path d="M613 274Q606 321.6 613 342Q624 369.2 618 410Q607 382.8 612 342Q623 308 613 274Z" fill="black"/><ellipse cx="615" cy="342" rx="8" ry="8" fill="black"/></g><path d="M615 280V357" fill="none" stroke="white" stroke-width="1.7" stroke-linejoin="round" stroke-linecap="round"/></g><g data-feature="fixed-landing-gear" ><path d="M395 372L462 439L554 374M418 375L462 439" fill="none" stroke="black" stroke-width="8" stroke-linejoin="round" stroke-linecap="round"/><path d="M401 378L460 432L546 380" fill="none" stroke="white" stroke-width="1.5" stroke-linejoin="round" stroke-linecap="round"/><g data-feature="main-wheel" ><ellipse cx="462" cy="443" rx="29" ry="29" fill="black"/><ellipse cx="462" cy="443" rx="18.56" ry="18.56" fill="none" stroke="white" stroke-width="2"/><ellipse cx="462" cy="443" rx="4" ry="4" fill="white"/></g></g><g data-feature="tail-wheel" ><path d="M978 368L983 388" fill="none" stroke="black" stroke-width="5" stroke-linejoin="round" stroke-linecap="round"/><ellipse cx="986" cy="396" rx="10" ry="10" fill="black"/><ellipse cx="986" cy="396" rx="4" ry="4" fill="white"/></g><g data-feature="dorsal-turret" ><path d="M745 299Q742 268 762 266Q784 268 787 305Z" fill="black"/><path d="M755 275V299M767 272V301M779 279V302" fill="none" stroke="white" stroke-width="2" stroke-linejoin="round" stroke-linecap="round"/><path d="M778 285L818 275" fill="none" stroke="black" stroke-width="3.5" stroke-linejoin="round" stroke-linecap="round"/></g><g data-feature="ventral-turret" ><path d="M661 399L701 394L707 418L693 427L663 424Z" fill="black"/><path d="M670 402L671 420M688 399L691 423" fill="none" stroke="white" stroke-width="2" stroke-linejoin="round" stroke-linecap="round"/><path d="M703 414L738 418" fill="none" stroke="black" stroke-width="3" stroke-linejoin="round" stroke-linecap="round"/></g><ellipse cx="290" cy="333" rx="6" ry="7" fill="white"/><ellipse cx="646" cy="332" rx="6" ry="7" fill="white"/><ellipse cx="700" cy="340" rx="6" ry="7" fill="white"/></g></svg>
