<svg xmlns="http://www.w3.org/2000/svg" viewBox="0 0 1920 733.858" role="img" aria-labelledby="title desc"><title id="title">Kirov ocean cruiser recognition drawing</title><desc id="desc">Original WNT1922 Kirov ocean cruiser recognition illustration. Port profile and deck plan share one hull length and equipment stations. Dimensions and unspecified layout are illustration choices. Fitted catalog main battery: 9 barrels. Internal submarine tubes are not depicted as exposed deck mounts.</desc><metadata id="recognition-geometry">{&quot;schema&quot;:1,&quot;kind&quot;:&quot;ship&quot;,&quot;platformIds&quot;:[&quot;ocean_cl29&quot;],&quot;length_m&quot;:190,&quot;beam_m&quot;:18.5,&quot;dimensionsAreIllustrationChoices&quot;:true,&quot;scale_px_per_m&quot;:9.052631578947368,&quot;hullDatums&quot;:{&quot;profile&quot;:{&quot;x&quot;:100,&quot;y&quot;:280,&quot;length&quot;:1720},&quot;plan&quot;:{&quot;x&quot;:100,&quot;y&quot;:560,&quot;length&quot;:1720}},&quot;mainMounts&quot;:3,&quot;mainBarrels&quot;:9,&quot;torpedoTubes&quot;:6,&quot;catapults&quot;:0,&quot;stations&quot;:[{&quot;id&quot;:&quot;main-0&quot;,&quot;role&quot;:&quot;main&quot;,&quot;x_m&quot;:27.549999999999997,&quot;z_m&quot;:0,&quot;barrels&quot;:3,&quot;direction&quot;:-1,&quot;tier&quot;:0,&quot;lateral_m&quot;:0,&quot;length_m&quot;:5.698,&quot;beam_m&quot;:4.248,&quot;barrel_length_m&quot;:3.8},{&quot;id&quot;:&quot;main-1&quot;,&quot;role&quot;:&quot;main&quot;,&quot;x_m&quot;:44.65,&quot;z_m&quot;:0,&quot;barrels&quot;:3,&quot;direction&quot;:-1,&quot;tier&quot;:1,&quot;lateral_m&quot;:0,&quot;length_m&quot;:5.698,&quot;beam_m&quot;:4.248,&quot;barrel_length_m&quot;:3.8},{&quot;id&quot;:&quot;main-2&quot;,&quot;role&quot;:&quot;main&quot;,&quot;x_m&quot;:152.95000000000002,&quot;z_m&quot;:0,&quot;barrels&quot;:3,&quot;direction&quot;:1,&quot;tier&quot;:0,&quot;lateral_m&quot;:0,&quot;length_m&quot;:5.698,&quot;beam_m&quot;:4.248,&quot;barrel_length_m&quot;:3.8},{&quot;id&quot;:&quot;bridge&quot;,&quot;role&quot;:&quot;bridge&quot;,&quot;x_m&quot;:73.15,&quot;z_m&quot;:0,&quot;lateral_m&quot;:0,&quot;length_m&quot;:9.92,&quot;beam_m&quot;:8.879999999999999},{&quot;id&quot;:&quot;foremast&quot;,&quot;role&quot;:&quot;mast&quot;,&quot;x_m&quot;:78.09,&quot;z_m&quot;:0,&quot;radar&quot;:false,&quot;lateral_m&quot;:0,&quot;base_y&quot;:280,&quot;top_y&quot;:71.789},{&quot;id&quot;:&quot;funnel-0&quot;,&quot;role&quot;:&quot;funnel&quot;,&quot;x_m&quot;:93.1,&quot;z_m&quot;:0,&quot;lateral_m&quot;:0,&quot;length_m&quot;:4.4,&quot;beam_m&quot;:3.9600000000000004},{&quot;id&quot;:&quot;funnel-1&quot;,&quot;role&quot;:&quot;funnel&quot;,&quot;x_m&quot;:107.35,&quot;z_m&quot;:0,&quot;lateral_m&quot;:0,&quot;length_m&quot;:4.4,&quot;beam_m&quot;:3.9600000000000004},{&quot;id&quot;:&quot;aftmast&quot;,&quot;role&quot;:&quot;mast&quot;,&quot;x_m&quot;:121.60000000000001,&quot;z_m&quot;:0,&quot;radar&quot;:false,&quot;lateral_m&quot;:0,&quot;base_y&quot;:280,&quot;top_y&quot;:117.053},{&quot;id&quot;:&quot;torpedo-0&quot;,&quot;role&quot;:&quot;torpedo&quot;,&quot;x_m&quot;:118.75,&quot;z_m&quot;:0,&quot;tubes&quot;:3,&quot;lateral_m&quot;:0,&quot;length_m&quot;:6.5,&quot;beam_m&quot;:2.16,&quot;arrangement&quot;:&quot;centerline launcher&quot;},{&quot;id&quot;:&quot;torpedo-1&quot;,&quot;role&quot;:&quot;torpedo&quot;,&quot;x_m&quot;:131.1,&quot;z_m&quot;:0,&quot;tubes&quot;:3,&quot;lateral_m&quot;:0,&quot;length_m&quot;:6.5,&quot;beam_m&quot;:2.16,&quot;arrangement&quot;:&quot;centerline launcher&quot;},{&quot;id&quot;:&quot;boat--1-0&quot;,&quot;role&quot;:&quot;boat&quot;,&quot;x_m&quot;:86.45,&quot;z_m&quot;:0,&quot;lateral_m&quot;:-4.81},{&quot;id&quot;:&quot;boat--1-1&quot;,&quot;role&quot;:&quot;boat&quot;,&quot;x_m&quot;:115.89999999999999,&quot;z_m&quot;:0,&quot;lateral_m&quot;:-4.81},{&quot;id&quot;:&quot;boat-1-0&quot;,&quot;role&quot;:&quot;boat&quot;,&quot;x_m&quot;:86.45,&quot;z_m&quot;:0,&quot;lateral_m&quot;:4.81},{&quot;id&quot;:&quot;boat-1-1&quot;,&quot;role&quot;:&quot;boat&quot;,&quot;x_m&quot;:115.89999999999999,&quot;z_m&quot;:0,&quot;lateral_m&quot;:4.81},{&quot;id&quot;:&quot;aa--1-0&quot;,&quot;role&quot;:&quot;light-aa&quot;,&quot;x_m&quot;:95,&quot;z_m&quot;:0,&quot;barrels&quot;:1,&quot;lateral_m&quot;:-7.955,&quot;length_m&quot;:1.3,&quot;beam_m&quot;:1.3},{&quot;id&quot;:&quot;aa-1-0&quot;,&quot;role&quot;:&quot;light-aa&quot;,&quot;x_m&quot;:95,&quot;z_m&quot;:0,&quot;barrels&quot;:1,&quot;lateral_m&quot;:7.955,&quot;length_m&quot;:1.3,&quot;beam_m&quot;:1.3}],&quot;method&quot;:&quot;Each equipment station is a single SVG group with one longitudinal translation containing both orthographic projections. Equipment moves together when that shared transform is edited.&quot;}</metadata><rect x="0" y="0" width="1920" height="733.858" fill="#fff"></rect><path d="M 100 265.7421052631579 Q 180 275.9263157894737 420 280 L 1820 280 L 1790 310.14526315789476 L 140 310.14526315789476 Z" fill="#111" data-hull-view="profile" data-length-m="190"></path><line x1="143" y1="299.554" x2="1794" y2="299.554" stroke="#fff" stroke-width="1"></line><path d="M 100 560 C 200 506.4084210526316 320 479.61263157894734 590 476.2631578947369 L 1310 476.2631578947369 Q 1680 487.9863157894737 1820 560 Q 1680 632.0136842105263 1310 643.7368421052631 L 590 643.7368421052631 C 320 640.3873684210527 200 613.5915789473684 100 560 Z" fill="#111" data-hull-view="plan" data-length-m="190" data-beam-m="18.5"></path><path d="M 138 560 C 260 506.4084210526316 360 484.63684210526316 590 482.9621052631579 L 1300 482.9621052631579 Q 1670 493.0105263157895 1785 560 Q 1670 626.9894736842106 1300 637.0378947368421 L 590 637.0378947368421 C 360 635.3631578947368 260 613.5915789473684 138 560 Z" fill="none" stroke="#fff" stroke-width="1"></path><ellipse cx="175" cy="560" rx="9" ry="5" fill="none" stroke="#fff"></ellipse><line x1="175" y1="560" x2="260" y2="560" stroke="#fff" stroke-width="1.4"></line><rect x="253" y="551" width="15" height="18" fill="#111" stroke="#fff"></rect><g data-station="main-0" data-role="main" data-x-m="27.55" transform="translate(349.4 0)"><g data-view="profile"><path d="M -24.384168421052635 280 L -24.384168421052635 264.52543157894735 L 15.00564210526316 258.89831578947366 L 25.790947368421058 269.68362105263157 L 25.790947368421058 280 Z" fill="#111" stroke="#fff" stroke-width="1"></path><line x1="-22.508" y1="266.87" x2="-56.908" y2="266.87" stroke="#111" stroke-width="1.8"></line></g><g data-view="plan"><ellipse cx="0" cy="560" rx="18.757" ry="19.995" fill="#111" stroke="#fff" stroke-width="1"></ellipse><path d="M -25.790947368421058 543.8501776842105 L 18.75705263157895 540.7740210526316 L 25.790947368421058 549.2334517894736 L 25.790947368421058 570.7665482105264 L 18.75705263157895 579.2259789473684 L -25.790947368421058 576.1498223157895 Z" fill="#111" stroke="#fff" stroke-width="1"></path><rect x="-55.502" y="549.487" width="34.4" height="1.8" fill="#111" stroke="#fff" stroke-width="0.6" data-main-barrel="0-0"></rect><rect x="-55.502" y="559.1" width="34.4" height="1.8" fill="#111" stroke="#fff" stroke-width="0.6" data-main-barrel="0-1"></rect><rect x="-55.502" y="568.713" width="34.4" height="1.8" fill="#111" stroke="#fff" stroke-width="0.6" data-main-barrel="0-2"></rect></g></g><g data-station="main-1" data-role="main" data-x-m="44.65" transform="translate(504.2 0)"><g data-view="profile"><rect x="-15.943" y="261.895" width="31.887" height="18.105" fill="#111" stroke="#fff" stroke-width="0.6"></rect><path d="M -24.384168421052635 261.89473684210526 L -24.384168421052635 246.42016842105264 L 15.00564210526316 240.79305263157895 L 25.790947368421058 251.57835789473683 L 25.790947368421058 261.89473684210526 Z" fill="#111" stroke="#fff" stroke-width="1"></path><line x1="-22.508" y1="248.765" x2="-56.908" y2="248.765" stroke="#111" stroke-width="1.8"></line></g><g data-view="plan"><ellipse cx="0" cy="560" rx="18.757" ry="19.995" fill="#111" stroke="#fff" stroke-width="1"></ellipse><path d="M -25.790947368421058 543.8501776842105 L 18.75705263157895 540.7740210526316 L 25.790947368421058 549.2334517894736 L 25.790947368421058 570.7665482105264 L 18.75705263157895 579.2259789473684 L -25.790947368421058 576.1498223157895 Z" fill="#111" stroke="#fff" stroke-width="1"></path><rect x="-55.502" y="549.487" width="34.4" height="1.8" fill="#111" stroke="#fff" stroke-width="0.6" data-main-barrel="1-0"></rect><rect x="-55.502" y="559.1" width="34.4" height="1.8" fill="#111" stroke="#fff" stroke-width="0.6" data-main-barrel="1-1"></rect><rect x="-55.502" y="568.713" width="34.4" height="1.8" fill="#111" stroke="#fff" stroke-width="0.6" data-main-barrel="1-2"></rect></g></g><g data-station="main-2" data-role="main" data-x-m="152.95" transform="translate(1484.6 0)"><g data-view="profile"><path d="M -24.384168421052635 280 L -24.384168421052635 264.52543157894735 L 15.00564210526316 258.89831578947366 L 25.790947368421058 269.68362105263157 L 25.790947368421058 280 Z" fill="#111" stroke="#fff" stroke-width="1"></path><line x1="22.508" y1="266.87" x2="56.908" y2="266.87" stroke="#111" stroke-width="1.8"></line></g><g data-view="plan"><ellipse cx="0" cy="560" rx="18.757" ry="19.995" fill="#111" stroke="#fff" stroke-width="1"></ellipse><path d="M -25.790947368421058 543.8501776842105 L 18.75705263157895 540.7740210526316 L 25.790947368421058 549.2334517894736 L 25.790947368421058 570.7665482105264 L 18.75705263157895 579.2259789473684 L -25.790947368421058 576.1498223157895 Z" fill="#111" stroke="#fff" stroke-width="1"></path><rect x="21.102" y="549.487" width="34.4" height="1.8" fill="#111" stroke="#fff" stroke-width="0.6" data-main-barrel="2-0"></rect><rect x="21.102" y="559.1" width="34.4" height="1.8" fill="#111" stroke="#fff" stroke-width="0.6" data-main-barrel="2-1"></rect><rect x="21.102" y="568.713" width="34.4" height="1.8" fill="#111" stroke="#fff" stroke-width="0.6" data-main-barrel="2-2"></rect></g></g><g data-station="bridge" data-role="bridge" data-x-m="73.15" transform="translate(762.2 0)"><g data-view="profile"><rect x="-44.901" y="235.642" width="89.802" height="44.358" fill="#111" stroke="#fff" stroke-width="0.8"></rect><rect x="-36.211" y="197.621" width="72.421" height="38.021" fill="#111" stroke="#fff" stroke-width="0.8"></rect><path d="M -32.589473684210525 197.62105263157895 L -32.589473684210525 153.26315789473685 L 21.726315789473684 153.26315789473685 L 32.589473684210525 181.14526315789476 L 32.589473684210525 197.62105263157895 Z" fill="#111" stroke="#fff" stroke-width="0.8"></path><rect x="-26.072" y="157.263" width="4.345" height="2.5" fill="#fff"></rect><rect x="-14.122" y="157.263" width="4.345" height="2.5" fill="#fff"></rect><rect x="-2.173" y="157.263" width="4.345" height="2.5" fill="#fff"></rect><rect x="9.777" y="157.263" width="4.345" height="2.5" fill="#fff"></rect><rect x="21.726" y="157.263" width="4.345" height="2.5" fill="#fff"></rect></g><g data-view="plan"><rect x="-44.901" y="519.806" width="89.802" height="80.387" fill="#111" rx="3" stroke="#fff" stroke-width="1"></rect><rect x="-31.141" y="533.472" width="62.282" height="53.056" fill="#111" rx="2" stroke="#fff" stroke-width="1"></rect></g></g><g data-station="foremast" data-role="mast" data-x-m="78.09" transform="translate(806.92 0)"><g data-view="profile"><line x1="0" y1="280" x2="0" y2="71.789" stroke="#111" stroke-width="2.3"></line><line x1="-27.158" y1="280" x2="0" y2="117.053" stroke="#111" stroke-width="2"></line><line x1="27.158" y1="280" x2="0" y2="117.053" stroke="#111" stroke-width="2"></line><line x1="-36.211" y1="98.947" x2="36.211" y2="98.947" stroke="#111" stroke-width="2"></line><rect x="-20.821" y="117.053" width="41.642" height="18.105" fill="#111"></rect></g><g data-view="plan"><ellipse cx="0" cy="560" rx="7.242" ry="7.242" fill="#111" stroke="#fff"></ellipse><line x1="-36.211" y1="560" x2="36.211" y2="560" stroke="#fff" stroke-width="1"></line></g></g><g data-station="funnel-0" data-role="funnel" data-x-m="93.1" transform="translate(942.8 0)"><g data-view="profile"><rect x="-19.916" y="126.105" width="39.832" height="153.895" fill="#111" rx="5.178" stroke="#fff" stroke-width="0.8"></rect><line x1="-19.916" y1="130.105" x2="19.916" y2="130.105" stroke="#fff" stroke-width="1.2"></line></g><g data-view="plan"><rect x="-19.916" y="542.076" width="39.832" height="35.848" fill="#111" rx="7.17" stroke="#fff" stroke-width="1"></rect><ellipse cx="0" cy="560" rx="11.949" ry="11.551" fill="none" stroke="#fff" stroke-width="0.8"></ellipse></g></g><g data-station="funnel-1" data-role="funnel" data-x-m="107.35" transform="translate(1071.8 0)"><g data-view="profile"><rect x="-19.916" y="126.105" width="39.832" height="153.895" fill="#111" rx="5.178" stroke="#fff" stroke-width="0.8"></rect><line x1="-19.916" y1="130.105" x2="19.916" y2="130.105" stroke="#fff" stroke-width="1.2"></line></g><g data-view="plan"><rect x="-19.916" y="542.076" width="39.832" height="35.848" fill="#111" rx="7.17" stroke="#fff" stroke-width="1"></rect><ellipse cx="0" cy="560" rx="11.949" ry="11.551" fill="none" stroke="#fff" stroke-width="0.8"></ellipse></g></g><g data-station="aftmast" data-role="mast" data-x-m="121.6" transform="translate(1200.8 0)"><g data-view="profile"><line x1="0" y1="280" x2="0" y2="117.053" stroke="#111" stroke-width="2.3"></line><line x1="-27.158" y1="280" x2="0" y2="162.316" stroke="#111" stroke-width="2"></line><line x1="27.158" y1="280" x2="0" y2="162.316" stroke="#111" stroke-width="2"></line><line x1="-36.211" y1="144.211" x2="36.211" y2="144.211" stroke="#111" stroke-width="2"></line><rect x="-20.821" y="162.316" width="41.642" height="18.105" fill="#111"></rect></g><g data-view="plan"><ellipse cx="0" cy="560" rx="7.242" ry="7.242" fill="#111" stroke="#fff"></ellipse><line x1="-36.211" y1="560" x2="36.211" y2="560" stroke="#fff" stroke-width="1"></line></g></g><g data-station="torpedo-0" data-role="torpedo" data-x-m="118.75" transform="translate(1175 0)"><g data-view="profile"><rect x="-9.415" y="272.758" width="18.829" height="7.242" fill="#111"></rect><rect x="-29.421" y="267.326" width="58.842" height="5.432" fill="#111" rx="2.263" stroke="#fff" stroke-width="0.8"></rect></g><g data-view="plan"><ellipse cx="0" cy="560" rx="8.238" ry="8.238" fill="#111" stroke="#fff"></ellipse><rect x="-29.421" y="550.223" width="58.842" height="5.069" fill="#111" rx="2.173" stroke="#fff" stroke-width="0.8" data-torpedo-tube="0-0"></rect><rect x="-29.421" y="557.465" width="58.842" height="5.069" fill="#111" rx="2.173" stroke="#fff" stroke-width="0.8" data-torpedo-tube="0-1"></rect><rect x="-29.421" y="564.707" width="58.842" height="5.069" fill="#111" rx="2.173" stroke="#fff" stroke-width="0.8" data-torpedo-tube="0-2"></rect></g></g><g data-station="torpedo-1" data-role="torpedo" data-x-m="131.1" transform="translate(1286.8 0)"><g data-view="profile"><rect x="-9.415" y="272.758" width="18.829" height="7.242" fill="#111"></rect><rect x="-29.421" y="267.326" width="58.842" height="5.432" fill="#111" rx="2.263" stroke="#fff" stroke-width="0.8"></rect></g><g data-view="plan"><ellipse cx="0" cy="560" rx="8.238" ry="8.238" fill="#111" stroke="#fff"></ellipse><rect x="-29.421" y="550.223" width="58.842" height="5.069" fill="#111" rx="2.173" stroke="#fff" stroke-width="0.8" data-torpedo-tube="1-0"></rect><rect x="-29.421" y="557.465" width="58.842" height="5.069" fill="#111" rx="2.173" stroke="#fff" stroke-width="0.8" data-torpedo-tube="1-1"></rect><rect x="-29.421" y="564.707" width="58.842" height="5.069" fill="#111" rx="2.173" stroke="#fff" stroke-width="0.8" data-torpedo-tube="1-2"></rect></g></g><g data-station="boat--1-0" data-role="boat" data-x-m="86.45" transform="translate(882.6 0)"><g data-view="profile"><path d="M -18 275 Q 0 283 18 275 Z" fill="#111" stroke="#fff" stroke-width="0.7"></path></g><g data-view="plan"><ellipse cx="0" cy="516.457" rx="13" ry="5" fill="#111" stroke="#fff" stroke-width="1"></ellipse></g></g><g data-station="boat--1-1" data-role="boat" data-x-m="115.9" transform="translate(1149.2 0)"><g data-view="profile"><path d="M -18 275 Q 0 283 18 275 Z" fill="#111" stroke="#fff" stroke-width="0.7"></path></g><g data-view="plan"><ellipse cx="0" cy="516.457" rx="13" ry="5" fill="#111" stroke="#fff" stroke-width="1"></ellipse></g></g><g data-station="boat-1-0" data-role="boat" data-x-m="86.45" transform="translate(882.6 0)"><g data-view="profile"><path d="M -18 275 Q 0 283 18 275 Z" fill="#111" stroke="#fff" stroke-width="0.7"></path></g><g data-view="plan"><ellipse cx="0" cy="603.543" rx="13" ry="5" fill="#111" stroke="#fff" stroke-width="1"></ellipse></g></g><g data-station="boat-1-1" data-role="boat" data-x-m="115.9" transform="translate(1149.2 0)"><g data-view="profile"><path d="M -18 275 Q 0 283 18 275 Z" fill="#111" stroke="#fff" stroke-width="0.7"></path></g><g data-view="plan"><ellipse cx="0" cy="603.543" rx="13" ry="5" fill="#111" stroke="#fff" stroke-width="1"></ellipse></g></g><g data-station="aa--1-0" data-role="light-aa" data-x-m="95" transform="translate(960 0)"><g data-view="profile"><rect x="-5.432" y="267.326" width="10.863" height="12.674" fill="#111"></rect><line x1="0" y1="267.326" x2="0" y2="260.084" stroke="#111" stroke-width="1.6"></line></g><g data-view="plan"><ellipse cx="0" cy="487.986" rx="5.884" ry="5.884" fill="#111" stroke="#fff" stroke-width="0.6"></ellipse><line x1="0" y1="487.986" x2="0" y2="471.692" stroke="#111" stroke-width="1.3" data-aa-barrel="-1-0-0"></line></g></g><g data-station="aa-1-0" data-role="light-aa" data-x-m="95" transform="translate(960 0)"><g data-view="profile"><rect x="-5.432" y="267.326" width="10.863" height="12.674" fill="#111"></rect><line x1="0" y1="267.326" x2="0" y2="260.084" stroke="#111" stroke-width="1.6"></line></g><g data-view="plan"><ellipse cx="0" cy="632.014" rx="5.884" ry="5.884" fill="#111" stroke="#fff" stroke-width="0.6"></ellipse><line x1="0" y1="632.014" x2="0" y2="648.308" stroke="#111" stroke-width="1.3" data-aa-barrel="1-0-0"></line></g></g> </svg>
