<svg xmlns="http://www.w3.org/2000/svg" viewBox="0 0 1650 1100" width="1650" height="1100"><metadata>{"format":1,"method":"Shared factual airframe stations projected orthographically","units":"metres","span":15.692,"length":10.16,"scale":43.97145042059648,"projections":{"plan":{"origin":[405,88],"axes":[[0,1,0],[1,0,0]]},"profile":{"origin":[850,375],"axes":[[1,0,0],[0,0,-1]]},"front":{"origin":[1230,820],"axes":[[0,1,0],[0,0,-1]]}},"airframe":{"slug":"yokosuka-rogo-redraw","title":"Yokosuka Ro-gō Type A","ids":["jp_naval_scout_1921","jpn_gov_maritime_patrol_1921"],"L":10.16,"S":15.692,"r":0.48,"body":[[0,0.34,0.42],[0.08,0.48,0.48],[0.23,0.47,0.46],[0.43,0.39,0.37],[0.69,0.24,0.25],[0.95,0.055,0.1],[1,0.025,0.04]],"planes":[{"x":2.32,"z":-0.36,"span":14.85,"chord":1.67,"tip":1.55},{"x":2.22,"z":1.24,"span":15.692,"chord":1.64,"tip":1.5}],"bays":[0.34,0.63,0.89],"engine":[{"x":0.06,"y":0,"z":0,"length":1.85,"r":0.43,"prop":true,"blades":2,"pr":1.35}],"tail":{"x":8.25,"span":3.6,"chord":1.45,"z":0.08,"fin":1.05,"shape":"triangle"},"cockpits":[{"x":3.6,"length":0.68,"width":0.53,"z":0.4},{"x":4.48,"length":0.68,"width":0.53,"z":0.35}],"gear":{"kind":"floats","x":0.02,"y":1.23,"z":-1.23,"length":4.65,"r":0.35,"tailFloat":true},"refs":[["Contemporary pre-1925 photograph, physical structure","https://commons.wikimedia.org/wiki/File:Yokosho_ROgou_KOUgata.jpg"],["Published type dimensions and three-bay/twin-float arrangement","https://en.wikipedia.org/wiki/Yokosuka_Ro-g%C5%8D_Type_A"],["Japanese production history, Nagoya Gakuin University","https://www2.ngu.ac.jp/uri/dp/pdf/dp135.pdf"]],"note":"Production Ro-gō Type A with Mitsubishi-built Hispano-Suiza inline engine, three-bay biplane, two open cockpits, two main floats and small tail float. Span 15.692 m and length 10.16 m. New simplified factual reconstruction from the contemporary photograph and published specifications; it is not a surviving factory plan. Both mappings depict this same floatplane."}}</metadata><rect width="1650" height="1100" fill="white"/><g data-view="plan"><path d="M352.234 88.879L363.227 102.071L366.305 139.996L365.074 223.828L356.192 293.347L345.639 293.347L336.756 223.828L335.525 139.996L338.603 102.071L349.596 88.879Z" fill="black"/><path d="M383.894 190.014L350.915 190.014" fill="none" stroke="black" stroke-width="2.3" stroke-linecap="round"/><path d="M383.894 263.446L350.915 263.446" fill="none" stroke="black" stroke-width="2.3" stroke-linecap="round"/><path d="M460.404 88.879L471.397 102.071L474.475 139.996L473.244 223.828L464.361 293.347L453.808 293.347L444.926 223.828L443.695 139.996L446.773 102.071L457.766 88.879Z" fill="black"/><path d="M426.106 190.014L459.085 190.014" fill="none" stroke="black" stroke-width="2.3" stroke-linecap="round"/><path d="M426.106 263.446L459.085 263.446" fill="none" stroke="black" stroke-width="2.3" stroke-linecap="round"/><path d="M405 481.14L405 481.14" fill="none" stroke="black" stroke-width="2" stroke-linecap="round"/><path d="M407.199 454.335L413.355 472.205L410.277 530.282L399.723 530.282L396.645 472.205L402.801 454.335Z" fill="black"/><g data-feature="wing" data-plane="0" data-side="-1" data-root="2.32,-0.36"><path d="M405 190.014L98.101 190.014L78.512 201.6L78.512 245.901L98.101 258.17L405 263.446Z" fill="black"/><path d="M377.793 192.652L377.793 259.489" fill="none" stroke="white" stroke-width="0.65" stroke-linecap="round"/><path d="M350.585 192.652L350.585 259.049" fill="none" stroke="white" stroke-width="0.65" stroke-linecap="round"/><path d="M323.378 192.652L323.378 258.609" fill="none" stroke="white" stroke-width="0.65" stroke-linecap="round"/><path d="M296.171 192.652L296.171 258.17" fill="none" stroke="white" stroke-width="0.65" stroke-linecap="round"/><path d="M268.963 192.652L268.963 257.73" fill="none" stroke="white" stroke-width="0.65" stroke-linecap="round"/><path d="M241.756 192.652L241.756 257.29" fill="none" stroke="white" stroke-width="0.65" stroke-linecap="round"/><path d="M214.549 192.652L214.549 256.85" fill="none" stroke="white" stroke-width="0.65" stroke-linecap="round"/><path d="M187.341 192.652L187.341 256.411" fill="none" stroke="white" stroke-width="0.65" stroke-linecap="round"/><path d="M160.134 192.652L160.134 255.971" fill="none" stroke="white" stroke-width="0.65" stroke-linecap="round"/><path d="M132.927 192.652L132.927 255.531" fill="none" stroke="white" stroke-width="0.65" stroke-linecap="round"/><path d="M105.719 192.652L105.719 255.092" fill="none" stroke="white" stroke-width="0.65" stroke-linecap="round"/><path d="M225.432 248.025L98.101 243.857" fill="none" stroke="white" stroke-width="1.3" stroke-linecap="round"/></g><g data-feature="wing" data-plane="0" data-side="1" data-root="2.32,-0.36"><path d="M405 190.014L711.899 190.014L731.488 201.6L731.488 245.901L711.899 258.17L405 263.446Z" fill="black"/><path d="M432.207 192.652L432.207 259.489" fill="none" stroke="white" stroke-width="0.65" stroke-linecap="round"/><path d="M459.415 192.652L459.415 259.049" fill="none" stroke="white" stroke-width="0.65" stroke-linecap="round"/><path d="M486.622 192.652L486.622 258.609" fill="none" stroke="white" stroke-width="0.65" stroke-linecap="round"/><path d="M513.829 192.652L513.829 258.17" fill="none" stroke="white" stroke-width="0.65" stroke-linecap="round"/><path d="M541.037 192.652L541.037 257.73" fill="none" stroke="white" stroke-width="0.65" stroke-linecap="round"/><path d="M568.244 192.652L568.244 257.29" fill="none" stroke="white" stroke-width="0.65" stroke-linecap="round"/><path d="M595.451 192.652L595.451 256.85" fill="none" stroke="white" stroke-width="0.65" stroke-linecap="round"/><path d="M622.659 192.652L622.659 256.411" fill="none" stroke="white" stroke-width="0.65" stroke-linecap="round"/><path d="M649.866 192.652L649.866 255.971" fill="none" stroke="white" stroke-width="0.65" stroke-linecap="round"/><path d="M677.073 192.652L677.073 255.531" fill="none" stroke="white" stroke-width="0.65" stroke-linecap="round"/><path d="M704.281 192.652L704.281 255.092" fill="none" stroke="white" stroke-width="0.65" stroke-linecap="round"/><path d="M584.568 248.025L711.899 243.857" fill="none" stroke="white" stroke-width="1.3" stroke-linecap="round"/></g><g data-feature="wing" data-plane="1" data-side="-1" data-root="2.22,1.24"><path d="M405 185.617L80.7 185.617L60 196.829L60 239.702L80.7 251.574L405 257.73Z" fill="black"/><path d="M376.25 188.255L376.25 253.699" fill="none" stroke="white" stroke-width="0.65" stroke-linecap="round"/><path d="M347.5 188.255L347.5 253.186" fill="none" stroke="white" stroke-width="0.65" stroke-linecap="round"/><path d="M318.75 188.255L318.75 252.673" fill="none" stroke="white" stroke-width="0.65" stroke-linecap="round"/><path d="M290 188.255L290 252.16" fill="none" stroke="white" stroke-width="0.65" stroke-linecap="round"/><path d="M261.25 188.255L261.25 251.647" fill="none" stroke="white" stroke-width="0.65" stroke-linecap="round"/><path d="M232.5 188.255L232.5 251.134" fill="none" stroke="white" stroke-width="0.65" stroke-linecap="round"/><path d="M203.75 188.255L203.75 250.621" fill="none" stroke="white" stroke-width="0.65" stroke-linecap="round"/><path d="M175 188.255L175 250.108" fill="none" stroke="white" stroke-width="0.65" stroke-linecap="round"/><path d="M146.25 188.255L146.25 249.595" fill="none" stroke="white" stroke-width="0.65" stroke-linecap="round"/><path d="M117.5 188.255L117.5 249.082" fill="none" stroke="white" stroke-width="0.65" stroke-linecap="round"/><path d="M88.75 188.255L88.75 248.569" fill="none" stroke="white" stroke-width="0.65" stroke-linecap="round"/><path d="M215.25 242.586L80.7 237.723" fill="none" stroke="white" stroke-width="1.3" stroke-linecap="round"/></g><g data-feature="wing" data-plane="1" data-side="1" data-root="2.22,1.24"><path d="M405 185.617L729.3 185.617L750 196.829L750 239.702L729.3 251.574L405 257.73Z" fill="black"/><path d="M433.75 188.255L433.75 253.699" fill="none" stroke="white" stroke-width="0.65" stroke-linecap="round"/><path d="M462.5 188.255L462.5 253.186" fill="none" stroke="white" stroke-width="0.65" stroke-linecap="round"/><path d="M491.25 188.255L491.25 252.673" fill="none" stroke="white" stroke-width="0.65" stroke-linecap="round"/><path d="M520 188.255L520 252.16" fill="none" stroke="white" stroke-width="0.65" stroke-linecap="round"/><path d="M548.75 188.255L548.75 251.647" fill="none" stroke="white" stroke-width="0.65" stroke-linecap="round"/><path d="M577.5 188.255L577.5 251.134" fill="none" stroke="white" stroke-width="0.65" stroke-linecap="round"/><path d="M606.25 188.255L606.25 250.621" fill="none" stroke="white" stroke-width="0.65" stroke-linecap="round"/><path d="M635 188.255L635 250.108" fill="none" stroke="white" stroke-width="0.65" stroke-linecap="round"/><path d="M663.75 188.255L663.75 249.595" fill="none" stroke="white" stroke-width="0.65" stroke-linecap="round"/><path d="M692.5 188.255L692.5 249.082" fill="none" stroke="white" stroke-width="0.65" stroke-linecap="round"/><path d="M721.25 188.255L721.25 248.569" fill="none" stroke="white" stroke-width="0.65" stroke-linecap="round"/><path d="M594.75 242.586L729.3 237.723" fill="none" stroke="white" stroke-width="1.3" stroke-linecap="round"/></g><path d="M287.7 201.029L287.7 196.434" fill="none" stroke="black" stroke-width="2.3" stroke-linecap="round"/><path d="M287.7 250.228L287.7 244.749" fill="none" stroke="black" stroke-width="2.3" stroke-linecap="round"/><path d="M287.7 201.029L287.7 244.749" fill="none" stroke="black" stroke-width="0.9" stroke-linecap="round"/><path d="M287.7 250.228L287.7 196.434" fill="none" stroke="black" stroke-width="0.9" stroke-linecap="round"/><path d="M187.65 201.029L187.65 196.434" fill="none" stroke="black" stroke-width="2.3" stroke-linecap="round"/><path d="M187.65 250.228L187.65 244.749" fill="none" stroke="black" stroke-width="2.3" stroke-linecap="round"/><path d="M187.65 201.029L187.65 244.749" fill="none" stroke="black" stroke-width="0.9" stroke-linecap="round"/><path d="M187.65 250.228L187.65 196.434" fill="none" stroke="black" stroke-width="0.9" stroke-linecap="round"/><path d="M97.95 201.029L97.95 196.434" fill="none" stroke="black" stroke-width="2.3" stroke-linecap="round"/><path d="M97.95 250.228L97.95 244.749" fill="none" stroke="black" stroke-width="2.3" stroke-linecap="round"/><path d="M97.95 201.029L97.95 244.749" fill="none" stroke="black" stroke-width="0.9" stroke-linecap="round"/><path d="M97.95 250.228L97.95 196.434" fill="none" stroke="black" stroke-width="0.9" stroke-linecap="round"/><path d="M522.3 201.029L522.3 196.434" fill="none" stroke="black" stroke-width="2.3" stroke-linecap="round"/><path d="M522.3 250.228L522.3 244.749" fill="none" stroke="black" stroke-width="2.3" stroke-linecap="round"/><path d="M522.3 201.029L522.3 244.749" fill="none" stroke="black" stroke-width="0.9" stroke-linecap="round"/><path d="M522.3 250.228L522.3 196.434" fill="none" stroke="black" stroke-width="0.9" stroke-linecap="round"/><path d="M622.35 201.029L622.35 196.434" fill="none" stroke="black" stroke-width="2.3" stroke-linecap="round"/><path d="M622.35 250.228L622.35 244.749" fill="none" stroke="black" stroke-width="2.3" stroke-linecap="round"/><path d="M622.35 201.029L622.35 244.749" fill="none" stroke="black" stroke-width="0.9" stroke-linecap="round"/><path d="M622.35 250.228L622.35 196.434" fill="none" stroke="black" stroke-width="0.9" stroke-linecap="round"/><path d="M712.05 201.029L712.05 196.434" fill="none" stroke="black" stroke-width="2.3" stroke-linecap="round"/><path d="M712.05 250.228L712.05 244.749" fill="none" stroke="black" stroke-width="2.3" stroke-linecap="round"/><path d="M712.05 201.029L712.05 244.749" fill="none" stroke="black" stroke-width="0.9" stroke-linecap="round"/><path d="M712.05 250.228L712.05 196.434" fill="none" stroke="black" stroke-width="0.9" stroke-linecap="round"/><path d="M405 450.764L333.766 460.328L325.851 473.08L327.434 505.597L341.681 514.523L405 514.523Z" fill="black"/><path d="M405 491.57L329.017 491.57" fill="none" stroke="white" stroke-width="1.2" stroke-linecap="round"/><path d="M405 450.764L476.234 460.328L484.149 473.08L482.566 505.597L468.319 514.523L405 514.523Z" fill="black"/><path d="M405 491.57L480.983 491.57" fill="none" stroke="white" stroke-width="1.2" stroke-linecap="round"/><path d="M419.95 88L426.106 123.74L425.667 190.752L422.149 280.102L415.553 396.257L407.418 512.412L406.099 534.75L403.901 534.75L402.582 512.412L394.447 396.257L387.851 280.102L384.333 190.752L383.894 123.74L390.05 88Z" fill="black"/><g data-feature="engine" data-station="0" data-center="0.06,0,0" data-projected="405,90.638"><path d="M419.748 90.638L423.908 102.027L422.962 149.208L416.345 171.985L393.655 171.985L387.038 149.208L386.092 102.027L390.252 90.638Z" fill="black"/><path d="M405 88L446.975 88" fill="none" stroke="black" stroke-width="2.7" stroke-linecap="round"/><path d="M405 88L363.025 88" fill="none" stroke="black" stroke-width="2.7" stroke-linecap="round"/></g><path d="M405 275.6L406.75 275.423L408.457 274.897L410.078 274.035L411.575 272.859L412.91 271.396L414.05 269.684L414.967 267.763L415.639 265.683L416.049 263.493L416.186 261.248L416.049 259.002L415.639 256.812L414.967 254.732L414.05 252.811L412.91 251.099L411.575 249.636L410.078 248.46L408.457 247.598L406.75 247.072L405 246.895L403.25 247.072L401.543 247.598L399.922 248.46L398.425 249.636L397.09 251.099L395.95 252.811L395.033 254.732L394.361 256.812L393.951 259.002L393.814 261.248L393.951 263.493L394.361 265.683L395.033 267.763L395.95 269.684L397.09 271.396L398.425 272.859L399.922 274.035L401.543 274.897L403.25 275.423Z" fill="white"/><path d="M405 314.295L406.75 314.118L408.457 313.592L410.078 312.73L411.575 311.554L412.91 310.091L414.05 308.378L414.967 306.458L415.639 304.377L416.049 302.188L416.186 299.942L416.049 297.697L415.639 295.507L414.967 293.427L414.05 291.506L412.91 289.794L411.575 288.331L410.078 287.154L408.457 286.293L406.75 285.767L405 285.59L403.25 285.767L401.543 286.293L399.922 287.154L398.425 288.331L397.09 289.794L395.95 291.506L395.033 293.427L394.361 295.507L393.951 297.697L393.814 299.942L393.951 302.188L394.361 304.377L395.033 306.458L395.95 308.378L397.09 310.091L398.425 311.554L399.922 312.73L401.543 313.592L403.25 314.118Z" fill="white"/></g><g data-view="profile"><path d="M850.879 426.007L864.071 420.73L901.996 419.851L985.828 421.17L1055.347 425.127L1055.347 433.042L985.828 437L901.996 438.319L864.071 437.439L850.879 432.163Z" fill="black"/><path d="M863.191 429.085L983.783 434.801L983.783 438.319" fill="none" stroke="white" stroke-width="1.5" stroke-linecap="round"/><path d="M952.014 387.664L952.014 422.489" fill="none" stroke="black" stroke-width="2.3" stroke-linecap="round"/><path d="M1025.446 387.664L1025.446 422.489" fill="none" stroke="black" stroke-width="2.3" stroke-linecap="round"/><path d="M850.879 426.007L864.071 420.73L901.996 419.851L985.828 421.17L1055.347 425.127L1055.347 433.042L985.828 437L901.996 438.319L864.071 437.439L850.879 432.163Z" fill="black"/><path d="M863.191 429.085L983.783 434.801L983.783 438.319" fill="none" stroke="white" stroke-width="1.5" stroke-linecap="round"/><path d="M952.014 387.664L952.014 422.489" fill="none" stroke="black" stroke-width="2.3" stroke-linecap="round"/><path d="M1025.446 387.664L1025.446 422.489" fill="none" stroke="black" stroke-width="2.3" stroke-linecap="round"/><path d="M1243.14 378.518L1243.14 409.298" fill="none" stroke="black" stroke-width="2" stroke-linecap="round"/><path d="M1216.335 411.057L1234.205 407.979L1292.282 410.177L1292.282 417.213L1234.205 419.411L1216.335 416.333Z" fill="black"/><g data-feature="wing" data-plane="0" data-side="-1" data-root="2.32,-0.36"><path d="M952.014 390.83L968.903 386.213L1025.446 390.83L966.7 393.248Z" fill="black"/></g><g data-feature="wing" data-plane="0" data-side="1" data-root="2.32,-0.36"><path d="M952.014 390.83L968.903 386.213L1025.446 390.83L966.7 393.248Z" fill="black"/></g><g data-feature="wing" data-plane="1" data-side="-1" data-root="2.22,1.24"><path d="M947.617 320.475L964.203 315.858L1019.73 320.475L962.039 322.894Z" fill="black"/></g><g data-feature="wing" data-plane="1" data-side="1" data-root="2.22,1.24"><path d="M947.617 320.475L964.203 315.858L1019.73 320.475L962.039 322.894Z" fill="black"/></g><path d="M963.029 390.83L958.434 320.475" fill="none" stroke="black" stroke-width="2.3" stroke-linecap="round"/><path d="M1012.228 390.83L1006.749 320.475" fill="none" stroke="black" stroke-width="2.3" stroke-linecap="round"/><path d="M963.029 390.83L1006.749 320.475" fill="none" stroke="black" stroke-width="0.9" stroke-linecap="round"/><path d="M1012.228 390.83L958.434 320.475" fill="none" stroke="black" stroke-width="0.9" stroke-linecap="round"/><path d="M963.029 390.83L958.434 320.475" fill="none" stroke="black" stroke-width="2.3" stroke-linecap="round"/><path d="M1012.228 390.83L1006.749 320.475" fill="none" stroke="black" stroke-width="2.3" stroke-linecap="round"/><path d="M963.029 390.83L1006.749 320.475" fill="none" stroke="black" stroke-width="0.9" stroke-linecap="round"/><path d="M1012.228 390.83L958.434 320.475" fill="none" stroke="black" stroke-width="0.9" stroke-linecap="round"/><path d="M963.029 390.83L958.434 320.475" fill="none" stroke="black" stroke-width="2.3" stroke-linecap="round"/><path d="M1012.228 390.83L1006.749 320.475" fill="none" stroke="black" stroke-width="2.3" stroke-linecap="round"/><path d="M963.029 390.83L1006.749 320.475" fill="none" stroke="black" stroke-width="0.9" stroke-linecap="round"/><path d="M1012.228 390.83L958.434 320.475" fill="none" stroke="black" stroke-width="0.9" stroke-linecap="round"/><path d="M963.029 390.83L958.434 320.475" fill="none" stroke="black" stroke-width="2.3" stroke-linecap="round"/><path d="M1012.228 390.83L1006.749 320.475" fill="none" stroke="black" stroke-width="2.3" stroke-linecap="round"/><path d="M963.029 390.83L1006.749 320.475" fill="none" stroke="black" stroke-width="0.9" stroke-linecap="round"/><path d="M1012.228 390.83L958.434 320.475" fill="none" stroke="black" stroke-width="0.9" stroke-linecap="round"/><path d="M963.029 390.83L958.434 320.475" fill="none" stroke="black" stroke-width="2.3" stroke-linecap="round"/><path d="M1012.228 390.83L1006.749 320.475" fill="none" stroke="black" stroke-width="2.3" stroke-linecap="round"/><path d="M963.029 390.83L1006.749 320.475" fill="none" stroke="black" stroke-width="0.9" stroke-linecap="round"/><path d="M1012.228 390.83L958.434 320.475" fill="none" stroke="black" stroke-width="0.9" stroke-linecap="round"/><path d="M963.029 390.83L958.434 320.475" fill="none" stroke="black" stroke-width="2.3" stroke-linecap="round"/><path d="M1012.228 390.83L1006.749 320.475" fill="none" stroke="black" stroke-width="2.3" stroke-linecap="round"/><path d="M963.029 390.83L1006.749 320.475" fill="none" stroke="black" stroke-width="0.9" stroke-linecap="round"/><path d="M1012.228 390.83L958.434 320.475" fill="none" stroke="black" stroke-width="0.9" stroke-linecap="round"/><path d="M1212.764 371.482L1222.328 371.482L1235.08 371.482L1267.597 371.482L1276.523 371.482L1276.523 371.482Z" fill="black"/><path d="M1212.764 371.482L1222.328 371.482L1235.08 371.482L1267.597 371.482L1276.523 371.482L1276.523 371.482Z" fill="black"/><path d="M850 356.532L885.74 353.894L952.752 354.773L1042.102 358.731L1158.257 364.007L1274.412 370.603L1296.75 373.241L1296.75 376.759L1274.412 379.397L1158.257 385.993L1042.102 391.269L952.752 395.227L885.74 396.106L850 393.468Z" fill="black"/><path d="M1198.465 371.482L1269.945 328.83L1287.815 333.447L1296.75 373.681Z" fill="black"/><path d="M1281.114 338.064L1285.581 370.603" fill="none" stroke="white" stroke-width="1.1" stroke-linecap="round"/><g data-feature="engine" data-station="0" data-center="0.06,0,0" data-projected="852.638,375"><path d="M852.638 359.496L864.027 356.092L911.208 357.605L933.985 363.277L933.985 386.723L911.208 392.395L864.027 393.908L852.638 390.504Z" fill="black"/><path d="M850 375L850 333.025" fill="none" stroke="black" stroke-width="2.7" stroke-linecap="round"/><path d="M850 375L850 416.975" fill="none" stroke="black" stroke-width="2.7" stroke-linecap="round"/></g><path d="M1008.297 348.617L1038.198 348.617L1033.115 364.447L1014.893 364.447Z" fill="white"/><path d="M1008.297 361.809L1012.255 351.695" fill="none" stroke="black" stroke-width="1.5" stroke-linecap="round"/><path d="M1046.992 350.816L1076.893 350.816L1071.81 366.645L1053.588 366.645Z" fill="white"/><path d="M1046.992 364.007L1050.95 353.894" fill="none" stroke="black" stroke-width="1.5" stroke-linecap="round"/><path d="M957.22 385.553L1109.115 385.975L1256.542 376.319" fill="none" stroke="white" stroke-width="1.1" stroke-linecap="round"/></g><g data-view="front"><path d="M1191.305 874.085L1191.116 872.64L1190.552 871.231L1189.628 869.893L1188.366 868.657L1186.797 867.555L1184.961 866.614L1182.902 865.857L1180.671 865.303L1178.323 864.965L1175.915 864.851L1173.508 864.965L1171.159 865.303L1168.928 865.857L1166.869 866.614L1165.033 867.555L1163.464 868.657L1162.203 869.893L1161.278 871.231L1160.715 872.64L1160.525 874.085L1160.715 875.529L1161.278 876.938L1162.203 878.277L1163.464 879.512L1165.033 880.614L1166.869 881.555L1168.928 882.312L1171.159 882.867L1173.508 883.205L1175.915 883.319L1178.323 883.205L1180.671 882.867L1182.902 882.312L1184.961 881.555L1186.797 880.614L1188.366 879.512L1189.628 878.277L1190.552 876.938L1191.116 875.529Z" fill="black"/><path d="M1208.894 832.664L1175.915 867.489" fill="none" stroke="black" stroke-width="2.3" stroke-linecap="round"/><path d="M1208.894 832.664L1175.915 867.489" fill="none" stroke="black" stroke-width="2.3" stroke-linecap="round"/><path d="M1299.475 874.085L1299.285 872.64L1298.722 871.231L1297.797 869.893L1296.536 868.657L1294.967 867.555L1293.131 866.614L1291.072 865.857L1288.841 865.303L1286.492 864.965L1284.085 864.851L1281.677 864.965L1279.329 865.303L1277.098 865.857L1275.039 866.614L1273.203 867.555L1271.634 868.657L1270.372 869.893L1269.448 871.231L1268.884 872.64L1268.695 874.085L1268.884 875.529L1269.448 876.938L1270.372 878.277L1271.634 879.512L1273.203 880.614L1275.039 881.555L1277.098 882.312L1279.329 882.867L1281.677 883.205L1284.085 883.319L1286.492 883.205L1288.841 882.867L1291.072 882.312L1293.131 881.555L1294.967 880.614L1296.536 879.512L1297.797 878.277L1298.722 876.938L1299.285 875.529Z" fill="black"/><path d="M1251.106 832.664L1284.085 867.489" fill="none" stroke="black" stroke-width="2.3" stroke-linecap="round"/><path d="M1251.106 832.664L1284.085 867.489" fill="none" stroke="black" stroke-width="2.3" stroke-linecap="round"/><path d="M1230 823.518L1230 854.298" fill="none" stroke="black" stroke-width="2" stroke-linecap="round"/><path d="M1238.355 858.695L1238.252 857.801L1237.946 856.928L1237.444 856.1L1236.759 855.335L1235.908 854.653L1234.911 854.07L1233.793 853.602L1232.582 853.258L1231.307 853.049L1230 852.979L1228.693 853.049L1227.418 853.258L1226.207 853.602L1225.089 854.07L1224.092 854.653L1223.241 855.335L1222.556 856.1L1222.054 856.928L1221.748 857.801L1221.645 858.695L1221.748 859.589L1222.054 860.461L1222.556 861.29L1223.241 862.055L1224.092 862.737L1225.089 863.319L1226.207 863.788L1227.418 864.131L1228.693 864.341L1230 864.411L1231.307 864.341L1232.582 864.131L1233.793 863.788L1234.911 863.319L1235.908 862.737L1236.759 862.055L1237.444 861.29L1237.946 860.461L1238.252 859.589Z" fill="black"/><g data-feature="wing" data-plane="0" data-side="-1" data-root="2.32,-0.36"><path d="M1230 837.808L913.307 837.017L903.512 835.83L913.307 834.642L1230 832.972Z" fill="black"/></g><g data-feature="wing" data-plane="0" data-side="1" data-root="2.32,-0.36"><path d="M1230 837.808L1546.693 837.017L1556.488 835.83L1546.693 834.642L1230 832.972Z" fill="black"/></g><g data-feature="wing" data-plane="1" data-side="-1" data-root="2.22,1.24"><path d="M1230 767.454L895.35 766.663L885 765.475L895.35 764.288L1230 762.617Z" fill="black"/></g><g data-feature="wing" data-plane="1" data-side="1" data-root="2.22,1.24"><path d="M1230 767.454L1564.65 766.663L1575 765.475L1564.65 764.288L1230 762.617Z" fill="black"/></g><path d="M1112.7 835.83L1112.7 765.475" fill="none" stroke="black" stroke-width="2.3" stroke-linecap="round"/><path d="M1112.7 835.83L1112.7 765.475" fill="none" stroke="black" stroke-width="2.3" stroke-linecap="round"/><path d="M1112.7 835.83L1112.7 765.475" fill="none" stroke="black" stroke-width="0.9" stroke-linecap="round"/><path d="M1112.7 835.83L1112.7 765.475" fill="none" stroke="black" stroke-width="0.9" stroke-linecap="round"/><path d="M1012.65 835.83L1012.65 765.475" fill="none" stroke="black" stroke-width="2.3" stroke-linecap="round"/><path d="M1012.65 835.83L1012.65 765.475" fill="none" stroke="black" stroke-width="2.3" stroke-linecap="round"/><path d="M1012.65 835.83L1012.65 765.475" fill="none" stroke="black" stroke-width="0.9" stroke-linecap="round"/><path d="M1012.65 835.83L1012.65 765.475" fill="none" stroke="black" stroke-width="0.9" stroke-linecap="round"/><path d="M922.95 835.83L922.95 765.475" fill="none" stroke="black" stroke-width="2.3" stroke-linecap="round"/><path d="M922.95 835.83L922.95 765.475" fill="none" stroke="black" stroke-width="2.3" stroke-linecap="round"/><path d="M922.95 835.83L922.95 765.475" fill="none" stroke="black" stroke-width="0.9" stroke-linecap="round"/><path d="M922.95 835.83L922.95 765.475" fill="none" stroke="black" stroke-width="0.9" stroke-linecap="round"/><path d="M1347.3 835.83L1347.3 765.475" fill="none" stroke="black" stroke-width="2.3" stroke-linecap="round"/><path d="M1347.3 835.83L1347.3 765.475" fill="none" stroke="black" stroke-width="2.3" stroke-linecap="round"/><path d="M1347.3 835.83L1347.3 765.475" fill="none" stroke="black" stroke-width="0.9" stroke-linecap="round"/><path d="M1347.3 835.83L1347.3 765.475" fill="none" stroke="black" stroke-width="0.9" stroke-linecap="round"/><path d="M1447.35 835.83L1447.35 765.475" fill="none" stroke="black" stroke-width="2.3" stroke-linecap="round"/><path d="M1447.35 835.83L1447.35 765.475" fill="none" stroke="black" stroke-width="2.3" stroke-linecap="round"/><path d="M1447.35 835.83L1447.35 765.475" fill="none" stroke="black" stroke-width="0.9" stroke-linecap="round"/><path d="M1447.35 835.83L1447.35 765.475" fill="none" stroke="black" stroke-width="0.9" stroke-linecap="round"/><path d="M1537.05 835.83L1537.05 765.475" fill="none" stroke="black" stroke-width="2.3" stroke-linecap="round"/><path d="M1537.05 835.83L1537.05 765.475" fill="none" stroke="black" stroke-width="2.3" stroke-linecap="round"/><path d="M1537.05 835.83L1537.05 765.475" fill="none" stroke="black" stroke-width="0.9" stroke-linecap="round"/><path d="M1537.05 835.83L1537.05 765.475" fill="none" stroke="black" stroke-width="0.9" stroke-linecap="round"/><path d="M1230 816.482L1150.851 816.482" fill="none" stroke="black" stroke-width="3" stroke-linecap="round"/><path d="M1230 816.482L1309.149 816.482" fill="none" stroke="black" stroke-width="3" stroke-linecap="round"/><path d="M1251.106 820L1250.846 816.698L1250.073 813.478L1248.806 810.418L1247.075 807.594L1244.924 805.076L1242.406 802.925L1239.582 801.194L1236.522 799.927L1233.302 799.154L1230 798.894L1226.698 799.154L1223.478 799.927L1220.418 801.194L1217.594 802.925L1215.076 805.076L1212.925 807.594L1211.194 810.418L1209.927 813.478L1209.154 816.698L1208.894 820L1209.154 823.302L1209.927 826.522L1211.194 829.582L1212.925 832.406L1215.076 834.924L1217.594 837.075L1220.418 838.806L1223.478 840.073L1226.698 840.846L1230 841.106L1233.302 840.846L1236.522 840.073L1239.582 838.806L1242.406 837.075L1244.924 834.924L1247.075 832.406L1248.806 829.582L1250.073 826.522L1250.846 823.302Z" fill="black"/><path d="M1230 820L1230 773.83" fill="none" stroke="black" stroke-width="3" stroke-linecap="round"/><g data-feature="engine" data-station="0" data-center="0.06,0,0" data-projected="1230,820"><path d="M1248.908 820L1248.675 817.042L1247.982 814.157L1246.847 811.416L1245.297 808.886L1243.37 806.63L1241.114 804.703L1238.584 803.153L1235.843 802.018L1232.958 801.325L1230 801.092L1227.042 801.325L1224.157 802.018L1221.416 803.153L1218.886 804.703L1216.63 806.63L1214.703 808.886L1213.153 811.416L1212.018 814.157L1211.325 817.042L1211.092 820L1211.325 822.958L1212.018 825.843L1213.153 828.584L1214.703 831.114L1216.63 833.37L1218.886 835.297L1221.416 836.847L1224.157 837.982L1227.042 838.675L1230 838.908L1232.958 838.675L1235.843 837.982L1238.584 836.847L1241.114 835.297L1243.37 833.37L1245.297 831.114L1246.847 828.584L1247.982 825.843L1248.675 822.958Z" fill="black"/><path d="M1230 820L1271.975 778.025" fill="none" stroke="black" stroke-width="5" stroke-linecap="round"/><path d="M1230 820L1188.025 861.975" fill="none" stroke="black" stroke-width="5" stroke-linecap="round"/><path d="M1241.345 820L1241.205 818.225L1240.789 816.494L1240.108 814.85L1239.178 813.332L1238.022 811.978L1236.668 810.822L1235.15 809.892L1233.506 809.211L1231.775 808.795L1230 808.655L1228.225 808.795L1226.494 809.211L1224.85 809.892L1223.332 810.822L1221.978 811.978L1220.822 813.332L1219.892 814.85L1219.211 816.494L1218.795 818.225L1218.655 820L1218.795 821.775L1219.211 823.506L1219.892 825.15L1220.822 826.668L1221.978 828.022L1223.332 829.178L1224.85 830.108L1226.494 830.789L1228.225 831.205L1230 831.345L1231.775 831.205L1233.506 830.789L1235.15 830.108L1236.668 829.178L1238.022 828.022L1239.178 826.668L1240.108 825.15L1240.789 823.506L1241.205 821.775Z" fill="none" stroke="white" stroke-width="1.1" stroke-linejoin="round"/></g></g></svg>